%
M48
METRIC,TZ,000.000
ICI,OFF
T1C0.5
T2C2
T3C1.1
T4C0.813
T5C1.3
T6C0.813
T7C2.5
%
T1
X10236Y25271
T1
X10236Y22731
T1
X10236Y20191
T1
X17856Y20191
T1
X17856Y25271
T1
X17856Y22731
T1
X6000Y22773
T1
X6000Y20233
T2
X4650Y8933
T2
X31750Y8933
T2
X12250Y8933
T2
X39350Y8933
T3
X5920Y14933
T3
X16080Y14933
T3
X19920Y25349
T3
X30080Y25349
T3
X18920Y14933
T3
X29080Y14933
T3
X38000Y15189
T3
X38000Y25349
T4
X32460Y14933
T4
X35000Y14933
T5
X45500Y8388
T5
X45500Y13396
T5
X45500Y20269
T5
X45500Y25277
T6
X27460Y29273
T6
X30000Y29273
T6
X32540Y29273
T7
X2000Y1933
T7
X2000Y30933
T7
X48000Y1933
T7
X48000Y30933
M30
