G75*
G71*
%OFA0B0*%
%FSLAX23Y23*%
%IPPOS*%
%LPD*%
%ADD10C,0.1*%
%ADD11C,0.583*%
%LPD*%D10*
X0Y0D02*
X0Y100D01*
X0Y200D01*
X0Y299D01*
X0Y399D01*
X0Y499D01*
X0Y599D01*
X0Y699D01*
X0Y798D01*
X0Y898D01*
X0Y998D01*
X0Y1098D01*
X0Y1198D01*
X0Y1297D01*
X0Y1397D01*
X0Y1497D01*
X0Y1597D01*
X0Y1697D01*
X0Y1796D01*
X0Y1896D01*
X0Y1996D01*
X0Y2096D01*
X0Y2196D01*
X0Y2295D01*
X0Y2395D01*
X0Y2495D01*
X0Y2595D01*
X0Y2695D01*
X0Y2794D01*
X0Y2894D01*
X0Y2994D01*
X0Y3094D01*
X0Y3193D01*
X0Y3293D01*
X0Y3393D01*
X0Y3493D01*
X0Y3593D01*
X0Y3692D01*
X0Y3792D01*
X0Y3892D01*
X0Y3992D01*
X0Y4092D01*
X0Y4191D01*
X0Y4291D01*
X0Y4391D01*
X0Y4491D01*
X0Y4591D01*
X0Y4690D01*
X0Y4790D01*
X0Y4890D01*
X0Y4990D01*
X0Y5090D01*
X0Y5189D01*
X0Y5289D01*
X0Y5389D01*
X0Y5489D01*
X0Y5589D01*
X0Y5688D01*
X0Y5788D01*
X0Y5888D01*
X0Y5988D01*
X0Y6088D01*
X0Y6187D01*
X0Y6287D01*
X0Y6387D01*
X0Y6487D01*
X0Y6587D01*
X0Y6686D01*
X0Y6786D01*
X0Y6886D01*
X0Y6986D01*
X0Y7086D01*
X0Y7185D01*
X0Y7285D01*
X0Y7385D01*
X0Y7485D01*
X0Y7585D01*
X0Y7684D01*
X0Y7784D01*
X0Y7884D01*
X0Y7984D01*
X0Y8084D01*
X0Y8183D01*
X0Y8283D01*
X0Y8383D01*
X0Y8483D01*
X0Y8583D01*
X0Y8682D01*
X0Y8782D01*
X0Y8882D01*
X0Y8982D01*
X0Y9081D01*
X0Y9181D01*
X0Y9281D01*
X0Y9381D01*
X0Y9481D01*
X0Y9580D01*
X0Y9680D01*
X0Y9780D01*
X0Y9880D01*
X0Y9980D01*
X0Y10079D01*
X0Y10179D01*
X0Y10279D01*
X0Y10379D01*
X0Y10479D01*
X0Y10578D01*
X0Y10678D01*
X0Y10778D01*
X0Y10878D01*
X0Y10978D01*
X0Y11077D01*
X0Y11177D01*
X0Y11277D01*
X0Y11377D01*
X0Y11477D01*
X0Y11576D01*
X0Y11676D01*
X0Y11776D01*
X0Y11876D01*
X0Y11976D01*
X0Y12075D01*
X0Y12175D01*
X0Y12275D01*
X0Y12375D01*
X0Y12475D01*
X0Y12574D01*
X0Y12674D01*
X0Y12774D01*
X0Y12874D01*
X0Y12974D01*
X0Y13073D01*
X0Y13173D01*
X0Y13273D01*
X0Y13373D01*
X0Y13473D01*
X0Y13572D01*
X0Y13672D01*
X0Y13772D01*
X0Y13872D01*
X0Y13972D01*
X0Y14071D01*
X0Y14171D01*
X0Y14271D01*
X0Y14371D01*
X0Y14471D01*
X0Y14570D01*
X0Y14670D01*
X0Y14770D01*
X0Y14870D01*
X0Y14970D01*
X0Y15069D01*
X0Y15169D01*
X0Y15269D01*
X0Y15369D01*
X0Y15469D01*
X0Y15568D01*
X0Y15668D01*
X0Y15768D01*
X0Y15868D01*
X0Y15967D01*
X0Y16067D01*
X0Y16167D01*
X0Y16267D01*
X0Y16367D01*
X0Y16466D01*
X0Y16566D01*
X0Y16666D01*
X0Y16766D01*
X0Y16866D01*
X0Y16965D01*
X0Y17065D01*
X0Y17165D01*
X0Y17265D01*
X0Y17365D01*
X0Y17464D01*
X0Y17564D01*
X0Y17664D01*
X0Y17764D01*
X0Y17864D01*
X0Y17963D01*
X0Y18063D01*
X0Y18163D01*
X0Y18263D01*
X0Y18363D01*
X0Y18462D01*
X0Y18562D01*
X0Y18662D01*
X0Y18762D01*
X0Y18862D01*
X0Y18961D01*
X0Y19061D01*
X0Y19161D01*
X0Y19261D01*
X0Y19361D01*
X0Y19460D01*
X0Y19560D01*
X0Y19660D01*
X0Y19760D01*
X0Y19860D01*
X0Y19959D01*
X0Y20059D01*
X0Y20159D01*
X0Y20259D01*
X0Y20359D01*
X0Y20458D01*
X0Y20558D01*
X0Y20658D01*
X0Y20758D01*
X0Y20858D01*
X0Y20957D01*
X0Y21057D01*
X0Y21157D01*
X0Y21257D01*
X0Y21357D01*
X0Y21456D01*
X0Y21556D01*
X0Y21656D01*
X0Y21756D01*
X0Y21856D01*
X0Y21955D01*
X0Y22055D01*
X0Y22155D01*
X0Y22255D01*
X0Y22355D01*
X0Y22454D01*
X0Y22554D01*
X0Y22654D01*
X0Y22754D01*
X0Y22853D01*
X0Y22953D01*
X0Y23053D01*
X0Y23153D01*
X0Y23253D01*
X0Y23352D01*
X0Y23452D01*
X0Y23552D01*
X0Y23652D01*
X0Y23752D01*
X0Y23851D01*
X0Y23951D01*
X0Y24051D01*
X0Y24151D01*
X0Y24251D01*
X0Y24350D01*
X0Y24450D01*
X0Y24550D01*
X0Y24650D01*
X0Y24750D01*
X0Y24849D01*
X0Y24949D01*
X0Y25049D01*
X0Y25149D01*
X0Y25249D01*
X0Y25348D01*
X0Y25448D01*
X0Y25548D01*
X0Y25648D01*
X0Y25748D01*
X0Y25847D01*
X0Y25947D01*
X0Y26047D01*
X0Y26147D01*
X0Y26247D01*
X0Y26346D01*
X0Y26446D01*
X0Y26546D01*
X0Y26646D01*
X0Y26746D01*
X0Y26845D01*
X0Y26945D01*
X0Y27045D01*
X0Y27145D01*
X0Y27245D01*
X0Y27344D01*
X0Y27444D01*
X0Y27544D01*
X0Y27644D01*
X0Y27744D01*
X0Y27843D01*
X0Y27943D01*
X0Y28043D01*
X0Y28143D01*
X0Y28243D01*
X0Y28342D01*
X0Y28442D01*
X0Y28542D01*
X0Y28642D01*
X0Y28742D01*
X0Y28841D01*
X0Y28941D01*
X0Y29041D01*
X0Y29141D01*
X0Y29241D01*
X0Y29340D01*
X0Y29440D01*
X0Y29540D01*
X0Y29640D01*
X0Y29740D01*
X0Y29839D01*
X0Y29939D01*
X0Y30039D01*
X0Y30139D01*
X0Y30239D01*
X0Y30338D01*
X0Y30438D01*
X0Y30538D01*
X0Y30638D01*
X0Y30737D01*
X0Y30837D01*
X0Y30937D01*
X0Y31037D01*
X0Y31137D01*
X0Y31236D01*
X0Y31336D01*
X0Y31436D01*
X0Y31536D01*
X0Y31636D01*
X0Y31735D01*
X0Y31835D01*
X0Y31935D01*
X0Y32035D01*
X0Y32135D01*
X0Y32234D01*
X0Y32334D01*
X0Y32434D01*
X0Y32534D01*
X0Y32634D01*
X0Y32733D01*
X0Y32833D01*
X0Y32933D01*
X100Y32933D01*
X200Y32933D01*
X300Y32933D01*
X400Y32933D01*
X500Y32933D01*
X600Y32933D01*
X700Y32933D01*
X800Y32933D01*
X900Y32933D01*
X1000Y32933D01*
X1100Y32933D01*
X1200Y32933D01*
X1300Y32933D01*
X1400Y32933D01*
X1500Y32933D01*
X1600Y32933D01*
X1700Y32933D01*
X1800Y32933D01*
X1900Y32933D01*
X2000Y32933D01*
X2100Y32933D01*
X2200Y32933D01*
X2300Y32933D01*
X2400Y32933D01*
X2500Y32933D01*
X2600Y32933D01*
X2700Y32933D01*
X2800Y32933D01*
X2900Y32933D01*
X3000Y32933D01*
X3100Y32933D01*
X3200Y32933D01*
X3300Y32933D01*
X3400Y32933D01*
X3500Y32933D01*
X3600Y32933D01*
X3700Y32933D01*
X3800Y32933D01*
X3900Y32933D01*
X4000Y32933D01*
X4100Y32933D01*
X4200Y32933D01*
X4300Y32933D01*
X4400Y32933D01*
X4500Y32933D01*
X4600Y32933D01*
X4700Y32933D01*
X4800Y32933D01*
X4900Y32933D01*
X5000Y32933D01*
X5100Y32933D01*
X5200Y32933D01*
X5300Y32933D01*
X5400Y32933D01*
X5500Y32933D01*
X5600Y32933D01*
X5700Y32933D01*
X5800Y32933D01*
X5900Y32933D01*
X6000Y32933D01*
X6100Y32933D01*
X6200Y32933D01*
X6300Y32933D01*
X6400Y32933D01*
X6500Y32933D01*
X6600Y32933D01*
X6700Y32933D01*
X6800Y32933D01*
X6900Y32933D01*
X7000Y32933D01*
X7100Y32933D01*
X7200Y32933D01*
X7300Y32933D01*
X7400Y32933D01*
X7500Y32933D01*
X7600Y32933D01*
X7700Y32933D01*
X7800Y32933D01*
X7900Y32933D01*
X8000Y32933D01*
X8100Y32933D01*
X8200Y32933D01*
X8300Y32933D01*
X8400Y32933D01*
X8500Y32933D01*
X8600Y32933D01*
X8700Y32933D01*
X8800Y32933D01*
X8900Y32933D01*
X9000Y32933D01*
X9100Y32933D01*
X9200Y32933D01*
X9300Y32933D01*
X9400Y32933D01*
X9500Y32933D01*
X9600Y32933D01*
X9700Y32933D01*
X9800Y32933D01*
X9900Y32933D01*
X10000Y32933D01*
X10100Y32933D01*
X10200Y32933D01*
X10300Y32933D01*
X10400Y32933D01*
X10500Y32933D01*
X10600Y32933D01*
X10700Y32933D01*
X10800Y32933D01*
X10900Y32933D01*
X11000Y32933D01*
X11100Y32933D01*
X11200Y32933D01*
X11300Y32933D01*
X11400Y32933D01*
X11500Y32933D01*
X11600Y32933D01*
X11700Y32933D01*
X11800Y32933D01*
X11900Y32933D01*
X12000Y32933D01*
X12100Y32933D01*
X12200Y32933D01*
X12300Y32933D01*
X12400Y32933D01*
X12500Y32933D01*
X12600Y32933D01*
X12700Y32933D01*
X12800Y32933D01*
X12900Y32933D01*
X13000Y32933D01*
X13100Y32933D01*
X13200Y32933D01*
X13300Y32933D01*
X13400Y32933D01*
X13500Y32933D01*
X13600Y32933D01*
X13700Y32933D01*
X13800Y32933D01*
X13900Y32933D01*
X14000Y32933D01*
X14100Y32933D01*
X14200Y32933D01*
X14300Y32933D01*
X14400Y32933D01*
X14500Y32933D01*
X14600Y32933D01*
X14700Y32933D01*
X14800Y32933D01*
X14900Y32933D01*
X15000Y32933D01*
X15100Y32933D01*
X15200Y32933D01*
X15300Y32933D01*
X15400Y32933D01*
X15500Y32933D01*
X15600Y32933D01*
X15700Y32933D01*
X15800Y32933D01*
X15900Y32933D01*
X16000Y32933D01*
X16100Y32933D01*
X16200Y32933D01*
X16300Y32933D01*
X16400Y32933D01*
X16500Y32933D01*
X16600Y32933D01*
X16700Y32933D01*
X16800Y32933D01*
X16900Y32933D01*
X17000Y32933D01*
X17100Y32933D01*
X17200Y32933D01*
X17300Y32933D01*
X17400Y32933D01*
X17500Y32933D01*
X17600Y32933D01*
X17700Y32933D01*
X17800Y32933D01*
X17900Y32933D01*
X18000Y32933D01*
X18100Y32933D01*
X18200Y32933D01*
X18300Y32933D01*
X18400Y32933D01*
X18500Y32933D01*
X18600Y32933D01*
X18700Y32933D01*
X18800Y32933D01*
X18900Y32933D01*
X19000Y32933D01*
X19100Y32933D01*
X19200Y32933D01*
X19300Y32933D01*
X19400Y32933D01*
X19500Y32933D01*
X19600Y32933D01*
X19700Y32933D01*
X19800Y32933D01*
X19900Y32933D01*
X20000Y32933D01*
X20100Y32933D01*
X20200Y32933D01*
X20300Y32933D01*
X20400Y32933D01*
X20500Y32933D01*
X20600Y32933D01*
X20700Y32933D01*
X20800Y32933D01*
X20900Y32933D01*
X21000Y32933D01*
X21100Y32933D01*
X21200Y32933D01*
X21300Y32933D01*
X21400Y32933D01*
X21500Y32933D01*
X21600Y32933D01*
X21700Y32933D01*
X21800Y32933D01*
X21900Y32933D01*
X22000Y32933D01*
X22100Y32933D01*
X22200Y32933D01*
X22300Y32933D01*
X22400Y32933D01*
X22500Y32933D01*
X22600Y32933D01*
X22700Y32933D01*
X22800Y32933D01*
X22900Y32933D01*
X23000Y32933D01*
X23100Y32933D01*
X23200Y32933D01*
X23300Y32933D01*
X23400Y32933D01*
X23500Y32933D01*
X23600Y32933D01*
X23700Y32933D01*
X23800Y32933D01*
X23900Y32933D01*
X24000Y32933D01*
X24100Y32933D01*
X24200Y32933D01*
X24300Y32933D01*
X24400Y32933D01*
X24500Y32933D01*
X24600Y32933D01*
X24700Y32933D01*
X24800Y32933D01*
X24900Y32933D01*
X25000Y32933D01*
X25100Y32933D01*
X25200Y32933D01*
X25300Y32933D01*
X25400Y32933D01*
X25500Y32933D01*
X25600Y32933D01*
X25700Y32933D01*
X25800Y32933D01*
X25900Y32933D01*
X26000Y32933D01*
X26100Y32933D01*
X26200Y32933D01*
X26300Y32933D01*
X26400Y32933D01*
X26500Y32933D01*
X26600Y32933D01*
X26700Y32933D01*
X26800Y32933D01*
X26900Y32933D01*
X27000Y32933D01*
X27100Y32933D01*
X27200Y32933D01*
X27300Y32933D01*
X27400Y32933D01*
X27500Y32933D01*
X27600Y32933D01*
X27700Y32933D01*
X27800Y32933D01*
X27900Y32933D01*
X28000Y32933D01*
X28100Y32933D01*
X28200Y32933D01*
X28300Y32933D01*
X28400Y32933D01*
X28500Y32933D01*
X28600Y32933D01*
X28700Y32933D01*
X28800Y32933D01*
X28900Y32933D01*
X29000Y32933D01*
X29100Y32933D01*
X29200Y32933D01*
X29300Y32933D01*
X29400Y32933D01*
X29500Y32933D01*
X29600Y32933D01*
X29700Y32933D01*
X29800Y32933D01*
X29900Y32933D01*
X30000Y32933D01*
X30100Y32933D01*
X30200Y32933D01*
X30300Y32933D01*
X30400Y32933D01*
X30500Y32933D01*
X30600Y32933D01*
X30700Y32933D01*
X30800Y32933D01*
X30900Y32933D01*
X31000Y32933D01*
X31100Y32933D01*
X31200Y32933D01*
X31300Y32933D01*
X31400Y32933D01*
X31500Y32933D01*
X31600Y32933D01*
X31700Y32933D01*
X31800Y32933D01*
X31900Y32933D01*
X32000Y32933D01*
X32100Y32933D01*
X32200Y32933D01*
X32300Y32933D01*
X32400Y32933D01*
X32500Y32933D01*
X32600Y32933D01*
X32700Y32933D01*
X32800Y32933D01*
X32900Y32933D01*
X33000Y32933D01*
X33100Y32933D01*
X33200Y32933D01*
X33300Y32933D01*
X33400Y32933D01*
X33500Y32933D01*
X33600Y32933D01*
X33700Y32933D01*
X33800Y32933D01*
X33900Y32933D01*
X34000Y32933D01*
X34100Y32933D01*
X34200Y32933D01*
X34300Y32933D01*
X34400Y32933D01*
X34500Y32933D01*
X34600Y32933D01*
X34700Y32933D01*
X34800Y32933D01*
X34900Y32933D01*
X35000Y32933D01*
X35100Y32933D01*
X35200Y32933D01*
X35300Y32933D01*
X35400Y32933D01*
X35500Y32933D01*
X35600Y32933D01*
X35700Y32933D01*
X35800Y32933D01*
X35900Y32933D01*
X36000Y32933D01*
X36100Y32933D01*
X36200Y32933D01*
X36300Y32933D01*
X36400Y32933D01*
X36500Y32933D01*
X36600Y32933D01*
X36700Y32933D01*
X36800Y32933D01*
X36900Y32933D01*
X37000Y32933D01*
X37100Y32933D01*
X37200Y32933D01*
X37300Y32933D01*
X37400Y32933D01*
X37500Y32933D01*
X37600Y32933D01*
X37700Y32933D01*
X37800Y32933D01*
X37900Y32933D01*
X38000Y32933D01*
X38100Y32933D01*
X38200Y32933D01*
X38300Y32933D01*
X38400Y32933D01*
X38500Y32933D01*
X38600Y32933D01*
X38700Y32933D01*
X38800Y32933D01*
X38900Y32933D01*
X39000Y32933D01*
X39100Y32933D01*
X39200Y32933D01*
X39300Y32933D01*
X39400Y32933D01*
X39500Y32933D01*
X39600Y32933D01*
X39700Y32933D01*
X39800Y32933D01*
X39900Y32933D01*
X40000Y32933D01*
X40100Y32933D01*
X40200Y32933D01*
X40300Y32933D01*
X40400Y32933D01*
X40500Y32933D01*
X40600Y32933D01*
X40700Y32933D01*
X40800Y32933D01*
X40900Y32933D01*
X41000Y32933D01*
X41100Y32933D01*
X41200Y32933D01*
X41300Y32933D01*
X41400Y32933D01*
X41500Y32933D01*
X41600Y32933D01*
X41700Y32933D01*
X41800Y32933D01*
X41900Y32933D01*
X42000Y32933D01*
X42100Y32933D01*
X42200Y32933D01*
X42300Y32933D01*
X42400Y32933D01*
X42500Y32933D01*
X42600Y32933D01*
X42700Y32933D01*
X42800Y32933D01*
X42900Y32933D01*
X43000Y32933D01*
X43100Y32933D01*
X43200Y32933D01*
X43300Y32933D01*
X43400Y32933D01*
X43500Y32933D01*
X43600Y32933D01*
X43700Y32933D01*
X43800Y32933D01*
X43900Y32933D01*
X44000Y32933D01*
X44100Y32933D01*
X44200Y32933D01*
X44300Y32933D01*
X44400Y32933D01*
X44500Y32933D01*
X44600Y32933D01*
X44700Y32933D01*
X44800Y32933D01*
X44900Y32933D01*
X45000Y32933D01*
X45100Y32933D01*
X45200Y32933D01*
X45300Y32933D01*
X45400Y32933D01*
X45500Y32933D01*
X45600Y32933D01*
X45700Y32933D01*
X45800Y32933D01*
X45900Y32933D01*
X46000Y32933D01*
X46100Y32933D01*
X46200Y32933D01*
X46300Y32933D01*
X46400Y32933D01*
X46500Y32933D01*
X46600Y32933D01*
X46700Y32933D01*
X46800Y32933D01*
X46900Y32933D01*
X47000Y32933D01*
X47100Y32933D01*
X47200Y32933D01*
X47300Y32933D01*
X47400Y32933D01*
X47500Y32933D01*
X47600Y32933D01*
X47700Y32933D01*
X47800Y32933D01*
X47900Y32933D01*
X48000Y32933D01*
X48100Y32933D01*
X48200Y32933D01*
X48300Y32933D01*
X48400Y32933D01*
X48500Y32933D01*
X48600Y32933D01*
X48700Y32933D01*
X48800Y32933D01*
X48900Y32933D01*
X49000Y32933D01*
X49100Y32933D01*
X49200Y32933D01*
X49300Y32933D01*
X49400Y32933D01*
X49500Y32933D01*
X49600Y32933D01*
X49700Y32933D01*
X49800Y32933D01*
X49900Y32933D01*
X50000Y32933D01*
X50000Y32833D01*
X50000Y32734D01*
X50000Y32634D01*
X50000Y32534D01*
X50000Y32434D01*
X50000Y32334D01*
X50000Y32235D01*
X50000Y32135D01*
X50000Y32035D01*
X50000Y31935D01*
X50000Y31835D01*
X50000Y31736D01*
X50000Y31636D01*
X50000Y31536D01*
X50000Y31436D01*
X50000Y31336D01*
X50000Y31237D01*
X50000Y31137D01*
X50000Y31037D01*
X50000Y30937D01*
X50000Y30837D01*
X50000Y30738D01*
X50000Y30638D01*
X50000Y30538D01*
X50000Y30438D01*
X50000Y30338D01*
X50000Y30239D01*
X50000Y30139D01*
X50000Y30039D01*
X50000Y29939D01*
X50000Y29839D01*
X50000Y29740D01*
X50000Y29640D01*
X50000Y29540D01*
X50000Y29440D01*
X50000Y29340D01*
X50000Y29241D01*
X50000Y29141D01*
X50000Y29041D01*
X50000Y28941D01*
X50000Y28841D01*
X50000Y28742D01*
X50000Y28642D01*
X50000Y28542D01*
X50000Y28442D01*
X50000Y28342D01*
X50000Y28243D01*
X50000Y28143D01*
X50000Y28043D01*
X50000Y27943D01*
X50000Y27843D01*
X50000Y27744D01*
X50000Y27644D01*
X50000Y27544D01*
X50000Y27444D01*
X50000Y27344D01*
X50000Y27245D01*
X50000Y27145D01*
X50000Y27045D01*
X50000Y26945D01*
X50000Y26845D01*
X50000Y26746D01*
X50000Y26646D01*
X50000Y26546D01*
X50000Y26446D01*
X50000Y26347D01*
X50000Y26247D01*
X50000Y26147D01*
X50000Y26047D01*
X50000Y25947D01*
X50000Y25848D01*
X50000Y25748D01*
X50000Y25648D01*
X50000Y25548D01*
X50000Y25448D01*
X50000Y25349D01*
X50000Y25249D01*
X50000Y25149D01*
X50000Y25049D01*
X50000Y24949D01*
X50000Y24850D01*
X50000Y24750D01*
X50000Y24650D01*
X50000Y24550D01*
X50000Y24450D01*
X50000Y24351D01*
X50000Y24251D01*
X50000Y24151D01*
X50000Y24051D01*
X50000Y23951D01*
X50000Y23852D01*
X50000Y23752D01*
X50000Y23652D01*
X50000Y23552D01*
X50000Y23452D01*
X50000Y23353D01*
X50000Y23253D01*
X50000Y23153D01*
X50000Y23053D01*
X50000Y22953D01*
X50000Y22854D01*
X50000Y22754D01*
X50000Y22654D01*
X50000Y22554D01*
X50000Y22454D01*
X50000Y22355D01*
X50000Y22255D01*
X50000Y22155D01*
X50000Y22055D01*
X50000Y21955D01*
X50000Y21856D01*
X50000Y21756D01*
X50000Y21656D01*
X50000Y21556D01*
X50000Y21456D01*
X50000Y21357D01*
X50000Y21257D01*
X50000Y21157D01*
X50000Y21057D01*
X50000Y20957D01*
X50000Y20858D01*
X50000Y20758D01*
X50000Y20658D01*
X50000Y20558D01*
X50000Y20459D01*
X50000Y20359D01*
X50000Y20259D01*
X50000Y20159D01*
X50000Y20059D01*
X50000Y19960D01*
X50000Y19860D01*
X50000Y19760D01*
X50000Y19660D01*
X50000Y19560D01*
X50000Y19461D01*
X50000Y19361D01*
X50000Y19261D01*
X50000Y19161D01*
X50000Y19061D01*
X50000Y18962D01*
X50000Y18862D01*
X50000Y18762D01*
X50000Y18662D01*
X50000Y18562D01*
X50000Y18463D01*
X50000Y18363D01*
X50000Y18263D01*
X50000Y18163D01*
X50000Y18063D01*
X50000Y17964D01*
X50000Y17864D01*
X50000Y17764D01*
X50000Y17664D01*
X50000Y17564D01*
X50000Y17465D01*
X50000Y17365D01*
X50000Y17265D01*
X50000Y17165D01*
X50000Y17065D01*
X50000Y16966D01*
X50000Y16866D01*
X50000Y16766D01*
X50000Y16666D01*
X50000Y16566D01*
X50000Y16467D01*
X50000Y16367D01*
X50000Y16267D01*
X50000Y16167D01*
X50000Y16067D01*
X50000Y15968D01*
X50000Y15868D01*
X50000Y15768D01*
X50000Y15668D01*
X50000Y15568D01*
X50000Y15469D01*
X50000Y15369D01*
X50000Y15269D01*
X50000Y15169D01*
X50000Y15069D01*
X50000Y14970D01*
X50000Y14870D01*
X50000Y14770D01*
X50000Y14670D01*
X50000Y14570D01*
X50000Y14471D01*
X50000Y14371D01*
X50000Y14271D01*
X50000Y14171D01*
X50000Y14071D01*
X50000Y13972D01*
X50000Y13872D01*
X50000Y13772D01*
X50000Y13672D01*
X50000Y13573D01*
X50000Y13473D01*
X50000Y13373D01*
X50000Y13273D01*
X50000Y13173D01*
X50000Y13074D01*
X50000Y12974D01*
X50000Y12874D01*
X50000Y12774D01*
X50000Y12674D01*
X50000Y12575D01*
X50000Y12475D01*
X50000Y12375D01*
X50000Y12275D01*
X50000Y12175D01*
X50000Y12076D01*
X50000Y11976D01*
X50000Y11876D01*
X50000Y11776D01*
X50000Y11676D01*
X50000Y11577D01*
X50000Y11477D01*
X50000Y11377D01*
X50000Y11277D01*
X50000Y11177D01*
X50000Y11078D01*
X50000Y10978D01*
X50000Y10878D01*
X50000Y10778D01*
X50000Y10678D01*
X50000Y10579D01*
X50000Y10479D01*
X50000Y10379D01*
X50000Y10279D01*
X50000Y10179D01*
X50000Y10080D01*
X50000Y9980D01*
X50000Y9880D01*
X50000Y9780D01*
X50000Y9680D01*
X50000Y9581D01*
X50000Y9481D01*
X50000Y9381D01*
X50000Y9281D01*
X50000Y9181D01*
X50000Y9082D01*
X50000Y8982D01*
X50000Y8882D01*
X50000Y8782D01*
X50000Y8682D01*
X50000Y8583D01*
X50000Y8483D01*
X50000Y8383D01*
X50000Y8283D01*
X50000Y8183D01*
X50000Y8084D01*
X50000Y7984D01*
X50000Y7884D01*
X50000Y7784D01*
X50000Y7684D01*
X50000Y7585D01*
X50000Y7485D01*
X50000Y7385D01*
X50000Y7285D01*
X50000Y7185D01*
X50000Y7086D01*
X50000Y6986D01*
X50000Y6886D01*
X50000Y6786D01*
X50000Y6686D01*
X50000Y6587D01*
X50000Y6487D01*
X50000Y6387D01*
X50000Y6287D01*
X50000Y6188D01*
X50000Y6088D01*
X50000Y5988D01*
X50000Y5888D01*
X50000Y5788D01*
X50000Y5689D01*
X50000Y5589D01*
X50000Y5489D01*
X50000Y5389D01*
X50000Y5289D01*
X50000Y5190D01*
X50000Y5090D01*
X50000Y4990D01*
X50000Y4890D01*
X50000Y4790D01*
X50000Y4691D01*
X50000Y4591D01*
X50000Y4491D01*
X50000Y4391D01*
X50000Y4291D01*
X50000Y4192D01*
X50000Y4092D01*
X50000Y3992D01*
X50000Y3892D01*
X50000Y3792D01*
X50000Y3693D01*
X50000Y3593D01*
X50000Y3493D01*
X50000Y3393D01*
X50000Y3293D01*
X50000Y3194D01*
X50000Y3094D01*
X50000Y2994D01*
X50000Y2894D01*
X50000Y2794D01*
X50000Y2695D01*
X50000Y2595D01*
X50000Y2495D01*
X50000Y2395D01*
X50000Y2295D01*
X50000Y2196D01*
X50000Y2096D01*
X50000Y1996D01*
X50000Y1896D01*
X50000Y1796D01*
X50000Y1697D01*
X50000Y1597D01*
X50000Y1497D01*
X50000Y1397D01*
X50000Y1297D01*
X50000Y1198D01*
X50000Y1098D01*
X50000Y998D01*
X50000Y898D01*
X50000Y798D01*
X50000Y699D01*
X50000Y599D01*
X50000Y499D01*
X50000Y399D01*
X50000Y299D01*
X50000Y200D01*
X50000Y100D01*
X50000Y0D01*
X49900Y0D01*
X49800Y0D01*
X49700Y0D01*
X49600Y0D01*
X49500Y0D01*
X49400Y0D01*
X49300Y0D01*
X49200Y0D01*
X49100Y0D01*
X49000Y0D01*
X48900Y0D01*
X48800Y0D01*
X48700Y0D01*
X48600Y0D01*
X48500Y0D01*
X48400Y0D01*
X48300Y0D01*
X48200Y0D01*
X48100Y0D01*
X48000Y0D01*
X47900Y0D01*
X47800Y0D01*
X47700Y0D01*
X47600Y0D01*
X47500Y0D01*
X47400Y0D01*
X47300Y0D01*
X47200Y0D01*
X47100Y0D01*
X47000Y0D01*
X46900Y0D01*
X46800Y0D01*
X46700Y0D01*
X46600Y0D01*
X46500Y0D01*
X46400Y0D01*
X46300Y0D01*
X46200Y0D01*
X46100Y0D01*
X46000Y0D01*
X45900Y0D01*
X45800Y0D01*
X45700Y0D01*
X45600Y0D01*
X45500Y0D01*
X45400Y0D01*
X45300Y0D01*
X45200Y0D01*
X45100Y0D01*
X45000Y0D01*
X44900Y0D01*
X44800Y0D01*
X44700Y0D01*
X44600Y0D01*
X44500Y0D01*
X44400Y0D01*
X44300Y0D01*
X44200Y0D01*
X44100Y0D01*
X44000Y0D01*
X43900Y0D01*
X43800Y0D01*
X43700Y0D01*
X43600Y0D01*
X43500Y0D01*
X43400Y0D01*
X43300Y0D01*
X43200Y0D01*
X43100Y0D01*
X43000Y0D01*
X42900Y0D01*
X42800Y0D01*
X42700Y0D01*
X42600Y0D01*
X42500Y0D01*
X42400Y0D01*
X42300Y0D01*
X42200Y0D01*
X42100Y0D01*
X42000Y0D01*
X41900Y0D01*
X41800Y0D01*
X41700Y0D01*
X41600Y0D01*
X41500Y0D01*
X41400Y0D01*
X41300Y0D01*
X41200Y0D01*
X41100Y0D01*
X41000Y0D01*
X40900Y0D01*
X40800Y0D01*
X40700Y0D01*
X40600Y0D01*
X40500Y0D01*
X40400Y0D01*
X40300Y0D01*
X40200Y0D01*
X40100Y0D01*
X40000Y0D01*
X39900Y0D01*
X39800Y0D01*
X39700Y0D01*
X39600Y0D01*
X39500Y0D01*
X39400Y0D01*
X39300Y0D01*
X39200Y0D01*
X39100Y0D01*
X39000Y0D01*
X38900Y0D01*
X38800Y0D01*
X38700Y0D01*
X38600Y0D01*
X38500Y0D01*
X38400Y0D01*
X38300Y0D01*
X38200Y0D01*
X38100Y0D01*
X38000Y0D01*
X37900Y0D01*
X37800Y0D01*
X37700Y0D01*
X37600Y0D01*
X37500Y0D01*
X37400Y0D01*
X37300Y0D01*
X37200Y0D01*
X37100Y0D01*
X37000Y0D01*
X36900Y0D01*
X36800Y0D01*
X36700Y0D01*
X36600Y0D01*
X36500Y0D01*
X36400Y0D01*
X36300Y0D01*
X36200Y0D01*
X36100Y0D01*
X36000Y0D01*
X35900Y0D01*
X35800Y0D01*
X35700Y0D01*
X35600Y0D01*
X35500Y0D01*
X35400Y0D01*
X35300Y0D01*
X35200Y0D01*
X35100Y0D01*
X35000Y0D01*
X34900Y0D01*
X34800Y0D01*
X34700Y0D01*
X34600Y0D01*
X34500Y0D01*
X34400Y0D01*
X34300Y0D01*
X34200Y0D01*
X34100Y0D01*
X34000Y0D01*
X33900Y0D01*
X33800Y0D01*
X33700Y0D01*
X33600Y0D01*
X33500Y0D01*
X33400Y0D01*
X33300Y0D01*
X33200Y0D01*
X33100Y0D01*
X33000Y0D01*
X32900Y0D01*
X32800Y0D01*
X32700Y0D01*
X32600Y0D01*
X32500Y0D01*
X32400Y0D01*
X32300Y0D01*
X32200Y0D01*
X32100Y0D01*
X32000Y0D01*
X31900Y0D01*
X31800Y0D01*
X31700Y0D01*
X31600Y0D01*
X31500Y0D01*
X31400Y0D01*
X31300Y0D01*
X31200Y0D01*
X31100Y0D01*
X31000Y0D01*
X30900Y0D01*
X30800Y0D01*
X30700Y0D01*
X30600Y0D01*
X30500Y0D01*
X30400Y0D01*
X30300Y0D01*
X30200Y0D01*
X30100Y0D01*
X30000Y0D01*
X29900Y0D01*
X29800Y0D01*
X29700Y0D01*
X29600Y0D01*
X29500Y0D01*
X29400Y0D01*
X29300Y0D01*
X29200Y0D01*
X29100Y0D01*
X29000Y0D01*
X28900Y0D01*
X28800Y0D01*
X28700Y0D01*
X28600Y0D01*
X28500Y0D01*
X28400Y0D01*
X28300Y0D01*
X28200Y0D01*
X28100Y0D01*
X28000Y0D01*
X27900Y0D01*
X27800Y0D01*
X27700Y0D01*
X27600Y0D01*
X27500Y0D01*
X27400Y0D01*
X27300Y0D01*
X27200Y0D01*
X27100Y0D01*
X27000Y0D01*
X26900Y0D01*
X26800Y0D01*
X26700Y0D01*
X26600Y0D01*
X26500Y0D01*
X26400Y0D01*
X26300Y0D01*
X26200Y0D01*
X26100Y0D01*
X26000Y0D01*
X25900Y0D01*
X25800Y0D01*
X25700Y0D01*
X25600Y0D01*
X25500Y0D01*
X25400Y0D01*
X25300Y0D01*
X25200Y0D01*
X25100Y0D01*
X25000Y0D01*
X24900Y0D01*
X24800Y0D01*
X24700Y0D01*
X24600Y0D01*
X24500Y0D01*
X24400Y0D01*
X24300Y0D01*
X24200Y0D01*
X24100Y0D01*
X24000Y0D01*
X23900Y0D01*
X23800Y0D01*
X23700Y0D01*
X23600Y0D01*
X23500Y0D01*
X23400Y0D01*
X23300Y0D01*
X23200Y0D01*
X23100Y0D01*
X23000Y0D01*
X22900Y0D01*
X22800Y0D01*
X22700Y0D01*
X22600Y0D01*
X22500Y0D01*
X22400Y0D01*
X22300Y0D01*
X22200Y0D01*
X22100Y0D01*
X22000Y0D01*
X21900Y0D01*
X21800Y0D01*
X21700Y0D01*
X21600Y0D01*
X21500Y0D01*
X21400Y0D01*
X21300Y0D01*
X21200Y0D01*
X21100Y0D01*
X21000Y0D01*
X20900Y0D01*
X20800Y0D01*
X20700Y0D01*
X20600Y0D01*
X20500Y0D01*
X20400Y0D01*
X20300Y0D01*
X20200Y0D01*
X20100Y0D01*
X20000Y0D01*
X19900Y0D01*
X19800Y0D01*
X19700Y0D01*
X19600Y0D01*
X19500Y0D01*
X19400Y0D01*
X19300Y0D01*
X19200Y0D01*
X19100Y0D01*
X19000Y0D01*
X18900Y0D01*
X18800Y0D01*
X18700Y0D01*
X18600Y0D01*
X18500Y0D01*
X18400Y0D01*
X18300Y0D01*
X18200Y0D01*
X18100Y0D01*
X18000Y0D01*
X17900Y0D01*
X17800Y0D01*
X17700Y0D01*
X17600Y0D01*
X17500Y0D01*
X17400Y0D01*
X17300Y0D01*
X17200Y0D01*
X17100Y0D01*
X17000Y0D01*
X16900Y0D01*
X16800Y0D01*
X16700Y0D01*
X16600Y0D01*
X16500Y0D01*
X16400Y0D01*
X16300Y0D01*
X16200Y0D01*
X16100Y0D01*
X16000Y0D01*
X15900Y0D01*
X15800Y0D01*
X15700Y0D01*
X15600Y0D01*
X15500Y0D01*
X15400Y0D01*
X15300Y0D01*
X15200Y0D01*
X15100Y0D01*
X15000Y0D01*
X14900Y0D01*
X14800Y0D01*
X14700Y0D01*
X14600Y0D01*
X14500Y0D01*
X14400Y0D01*
X14300Y0D01*
X14200Y0D01*
X14100Y0D01*
X14000Y0D01*
X13900Y0D01*
X13800Y0D01*
X13700Y0D01*
X13600Y0D01*
X13500Y0D01*
X13400Y0D01*
X13300Y0D01*
X13200Y0D01*
X13100Y0D01*
X13000Y0D01*
X12900Y0D01*
X12800Y0D01*
X12700Y0D01*
X12600Y0D01*
X12500Y0D01*
X12400Y0D01*
X12300Y0D01*
X12200Y0D01*
X12100Y0D01*
X12000Y0D01*
X11900Y0D01*
X11800Y0D01*
X11700Y0D01*
X11600Y0D01*
X11500Y0D01*
X11400Y0D01*
X11300Y0D01*
X11200Y0D01*
X11100Y0D01*
X11000Y0D01*
X10900Y0D01*
X10800Y0D01*
X10700Y0D01*
X10600Y0D01*
X10500Y0D01*
X10400Y0D01*
X10300Y0D01*
X10200Y0D01*
X10100Y0D01*
X10000Y0D01*
X9900Y0D01*
X9800Y0D01*
X9700Y0D01*
X9600Y0D01*
X9500Y0D01*
X9400Y0D01*
X9300Y0D01*
X9200Y0D01*
X9100Y0D01*
X9000Y0D01*
X8900Y0D01*
X8800Y0D01*
X8700Y0D01*
X8600Y0D01*
X8500Y0D01*
X8400Y0D01*
X8300Y0D01*
X8200Y0D01*
X8100Y0D01*
X8000Y0D01*
X7900Y0D01*
X7800Y0D01*
X7700Y0D01*
X7600Y0D01*
X7500Y0D01*
X7400Y0D01*
X7300Y0D01*
X7200Y0D01*
X7100Y0D01*
X7000Y0D01*
X6900Y0D01*
X6800Y0D01*
X6700Y0D01*
X6600Y0D01*
X6500Y0D01*
X6400Y0D01*
X6300Y0D01*
X6200Y0D01*
X6100Y0D01*
X6000Y0D01*
X5900Y0D01*
X5800Y0D01*
X5700Y0D01*
X5600Y0D01*
X5500Y0D01*
X5400Y0D01*
X5300Y0D01*
X5200Y0D01*
X5100Y0D01*
X5000Y0D01*
X4900Y0D01*
X4800Y0D01*
X4700Y0D01*
X4600Y0D01*
X4500Y0D01*
X4400Y0D01*
X4300Y0D01*
X4200Y0D01*
X4100Y0D01*
X4000Y0D01*
X3900Y0D01*
X3800Y0D01*
X3700Y0D01*
X3600Y0D01*
X3500Y0D01*
X3400Y0D01*
X3300Y0D01*
X3200Y0D01*
X3100Y0D01*
X3000Y0D01*
X2900Y0D01*
X2800Y0D01*
X2700Y0D01*
X2600Y0D01*
X2500Y0D01*
X2400Y0D01*
X2300Y0D01*
X2200Y0D01*
X2100Y0D01*
X2000Y0D01*
X1900Y0D01*
X1800Y0D01*
X1700Y0D01*
X1600Y0D01*
X1500Y0D01*
X1400Y0D01*
X1300Y0D01*
X1200Y0D01*
X1100Y0D01*
X1000Y0D01*
X900Y0D01*
X800Y0D01*
X700Y0D01*
X600Y0D01*
X500Y0D01*
X400Y0D01*
X300Y0D01*
X200Y0D01*
X100Y0D01*
X0Y0D01*
X0Y0D01*
G36*
X44068Y14550D02*
X44068Y17751D01*
X44752Y17197D01*
X45000Y17613D01*
X43992Y18389D01*
X43463Y18389D01*
X43463Y14550D01*
X44068Y14550D01*
G37*
G36*
X42306Y14550D02*
X42306Y15022D01*
X41021Y16333D01*
X40855Y16522D01*
X40706Y16720D01*
X40641Y16821D01*
X40585Y16924D01*
X40539Y17027D01*
X40505Y17132D01*
X40483Y17237D01*
X40475Y17342D01*
X40479Y17415D01*
X40491Y17484D01*
X40509Y17549D01*
X40535Y17610D01*
X40567Y17666D01*
X40604Y17717D01*
X40647Y17764D01*
X40695Y17807D01*
X40747Y17844D01*
X40804Y17877D01*
X40863Y17905D01*
X40926Y17928D01*
X40993Y17946D01*
X41060Y17959D01*
X41130Y17967D01*
X41201Y17969D01*
X41328Y17964D01*
X41452Y17949D01*
X41633Y17910D01*
X41750Y17876D01*
X41978Y17787D01*
X42145Y17710D01*
X42173Y18205D01*
X41923Y18302D01*
X41665Y18378D01*
X41532Y18407D01*
X41398Y18429D01*
X41263Y18442D01*
X41126Y18447D01*
X41000Y18443D01*
X40878Y18433D01*
X40758Y18414D01*
X40643Y18387D01*
X40532Y18354D01*
X40427Y18311D01*
X40329Y18260D01*
X40237Y18201D01*
X40153Y18132D01*
X40078Y18055D01*
X40013Y17969D01*
X39958Y17874D01*
X39913Y17769D01*
X39881Y17653D01*
X39860Y17529D01*
X39853Y17394D01*
X39861Y17265D01*
X39885Y17139D01*
X39923Y17014D01*
X39974Y16892D01*
X40035Y16772D01*
X40106Y16655D01*
X40270Y16427D01*
X41569Y15016D01*
X39790Y15016D01*
X39790Y14550D01*
X42306Y14550D01*
X42306Y14550D01*
G37*
G36*
X38863Y15131D02*
X38750Y15089D01*
X38634Y15053D01*
X38394Y15000D01*
X38154Y14968D01*
X37925Y14958D01*
X37830Y14961D01*
X37738Y14969D01*
X37649Y14982D01*
X37563Y15001D01*
X37480Y15026D01*
X37402Y15056D01*
X37328Y15092D01*
X37260Y15134D01*
X37198Y15182D01*
X37142Y15237D01*
X37093Y15298D01*
X37052Y15366D01*
X37019Y15441D01*
X36995Y15522D01*
X36980Y15611D01*
X36975Y15706D01*
X36980Y15794D01*
X36995Y15875D01*
X37020Y15946D01*
X37053Y16011D01*
X37094Y16069D01*
X37143Y16121D01*
X37199Y16165D01*
X37260Y16204D01*
X37326Y16237D01*
X37398Y16265D01*
X37474Y16287D01*
X37553Y16305D01*
X37634Y16318D01*
X37804Y16332D01*
X38397Y16334D01*
X38397Y16766D01*
X37866Y16768D01*
X37681Y16784D01*
X37594Y16798D01*
X37511Y16818D01*
X37434Y16842D01*
X37364Y16872D01*
X37298Y16906D01*
X37239Y16948D01*
X37186Y16995D01*
X37141Y17048D01*
X37103Y17109D01*
X37072Y17175D01*
X37051Y17251D01*
X37037Y17332D01*
X37032Y17422D01*
X37038Y17501D01*
X37052Y17572D01*
X37075Y17637D01*
X37107Y17696D01*
X37145Y17748D01*
X37191Y17795D01*
X37243Y17836D01*
X37300Y17871D01*
X37363Y17901D01*
X37429Y17927D01*
X37499Y17948D01*
X37572Y17965D01*
X37647Y17977D01*
X37801Y17991D01*
X37984Y17989D01*
X38206Y17964D01*
X38432Y17917D01*
X38654Y17849D01*
X38760Y17808D01*
X38794Y18280D01*
X38550Y18352D01*
X38302Y18404D01*
X38049Y18436D01*
X37792Y18447D01*
X37540Y18435D01*
X37415Y18420D01*
X37294Y18399D01*
X37175Y18370D01*
X37061Y18333D01*
X36953Y18289D01*
X36852Y18237D01*
X36759Y18176D01*
X36674Y18106D01*
X36600Y18026D01*
X36537Y17937D01*
X36486Y17838D01*
X36448Y17728D01*
X36424Y17606D01*
X36416Y17475D01*
X36421Y17384D01*
X36431Y17299D01*
X36449Y17219D01*
X36474Y17142D01*
X36506Y17070D01*
X36543Y17002D01*
X36586Y16938D01*
X36635Y16879D01*
X36690Y16825D01*
X36749Y16774D01*
X36814Y16728D01*
X36883Y16687D01*
X36956Y16649D01*
X37033Y16617D01*
X37115Y16588D01*
X37200Y16564D01*
X37112Y16550D01*
X37027Y16529D01*
X36945Y16503D01*
X36866Y16471D01*
X36792Y16435D01*
X36721Y16393D01*
X36654Y16345D01*
X36593Y16293D01*
X36538Y16235D01*
X36489Y16173D01*
X36445Y16106D01*
X36409Y16033D01*
X36381Y15957D01*
X36360Y15876D01*
X36346Y15791D01*
X36342Y15701D01*
X36351Y15546D01*
X36376Y15403D01*
X36419Y15271D01*
X36475Y15150D01*
X36546Y15039D01*
X36630Y14940D01*
X36725Y14851D01*
X36831Y14772D01*
X36945Y14703D01*
X37068Y14645D01*
X37199Y14595D01*
X37335Y14555D01*
X37476Y14525D01*
X37621Y14503D01*
X37769Y14491D01*
X38112Y14491D01*
X38359Y14512D01*
X38599Y14553D01*
X38717Y14582D01*
X38898Y14636D01*
X38863Y15131D01*
X38863Y15131D01*
X38863Y15131D01*
G37*
G36*
X32154Y16753D02*
X32179Y16966D01*
X32220Y17165D01*
X32278Y17348D01*
X32351Y17515D01*
X32440Y17668D01*
X32543Y17807D01*
X32662Y17930D01*
X32796Y18038D01*
X32943Y18132D01*
X33104Y18211D01*
X33279Y18275D01*
X33467Y18325D01*
X33668Y18361D01*
X33882Y18382D01*
X35288Y18389D01*
X35288Y16538D01*
X34660Y16538D01*
X34660Y17923D01*
X34007Y17917D01*
X33853Y17900D01*
X33710Y17869D01*
X33576Y17829D01*
X33453Y17776D01*
X33340Y17713D01*
X33239Y17638D01*
X33147Y17554D01*
X33067Y17459D01*
X32997Y17354D01*
X32937Y17239D01*
X32888Y17114D01*
X32851Y16981D01*
X32823Y16837D01*
X32806Y16685D01*
X32801Y16525D01*
X32807Y16339D01*
X32827Y16167D01*
X32859Y16007D01*
X32903Y15859D01*
X32960Y15723D01*
X33029Y15599D01*
X33109Y15488D01*
X33201Y15388D01*
X33306Y15300D01*
X33421Y15225D01*
X33548Y15161D01*
X33686Y15109D01*
X33834Y15068D01*
X33994Y15039D01*
X34164Y15022D01*
X34660Y15016D01*
X34660Y16538D01*
X35288Y16538D01*
X35288Y14550D01*
X34048Y14557D01*
X33826Y14580D01*
X33613Y14617D01*
X33413Y14671D01*
X33224Y14739D01*
X33048Y14822D01*
X32886Y14921D01*
X32738Y15036D01*
X32605Y15166D01*
X32487Y15312D01*
X32385Y15474D01*
X32301Y15652D01*
X32234Y15846D01*
X32185Y16056D01*
X32155Y16282D01*
X32145Y16525D01*
X32154Y16753D01*
G37*
G36*
X30704Y18020D02*
X30711Y18066D01*
X30722Y18109D01*
X30737Y18152D01*
X30757Y18192D01*
X30780Y18230D01*
X30806Y18265D01*
X30836Y18298D01*
X30869Y18328D01*
X30905Y18355D01*
X30943Y18378D01*
X30983Y18396D01*
X31025Y18412D01*
X31069Y18424D01*
X31115Y18431D01*
X31162Y18433D01*
X31209Y18431D01*
X31255Y18424D01*
X31300Y18412D01*
X31342Y18396D01*
X31382Y18378D01*
X31420Y18355D01*
X31455Y18328D01*
X31488Y18298D01*
X31518Y18265D01*
X31545Y18230D01*
X31568Y18192D01*
X31587Y18152D01*
X31603Y18109D01*
X31614Y18066D01*
X31621Y18020D01*
X31624Y17973D01*
X31548Y17973D01*
X31547Y18013D01*
X31540Y18052D01*
X31531Y18089D01*
X31518Y18125D01*
X31502Y18159D01*
X31483Y18192D01*
X31461Y18222D01*
X31436Y18250D01*
X31408Y18276D01*
X31379Y18298D01*
X31347Y18318D01*
X31314Y18334D01*
X31277Y18348D01*
X31240Y18358D01*
X31202Y18363D01*
X31162Y18366D01*
X31122Y18363D01*
X31084Y18358D01*
X31047Y18348D01*
X31012Y18334D01*
X30978Y18317D01*
X30946Y18298D01*
X30916Y18275D01*
X30889Y18249D01*
X30864Y18222D01*
X30842Y18191D01*
X30823Y18159D01*
X30806Y18124D01*
X30794Y18088D01*
X30784Y18051D01*
X30779Y18013D01*
X30776Y17973D01*
X30779Y17933D01*
X30784Y17894D01*
X30794Y17857D01*
X30806Y17821D01*
X30823Y17786D01*
X30842Y17753D01*
X30864Y17723D01*
X30889Y17695D01*
X30916Y17669D01*
X30946Y17646D01*
X30978Y17626D01*
X31012Y17609D01*
X31047Y17596D01*
X31084Y17586D01*
X31122Y17580D01*
X31162Y17578D01*
X31183Y17578D01*
X31202Y17580D01*
X31240Y17586D01*
X31277Y17596D01*
X31314Y17609D01*
X31347Y17626D01*
X31379Y17646D01*
X31408Y17669D01*
X31436Y17694D01*
X31461Y17723D01*
X31483Y17754D01*
X31502Y17787D01*
X31518Y17822D01*
X31531Y17857D01*
X31540Y17895D01*
X31547Y17933D01*
X31548Y17973D01*
X31624Y17973D01*
X31622Y17938D01*
X31618Y17903D01*
X31612Y17869D01*
X31603Y17836D01*
X31592Y17804D01*
X31578Y17773D01*
X31562Y17743D01*
X31545Y17715D01*
X31525Y17688D01*
X31504Y17662D01*
X31481Y17638D01*
X31456Y17616D01*
X31430Y17596D01*
X31402Y17578D01*
X31373Y17561D01*
X31342Y17547D01*
X31300Y17531D01*
X31254Y17520D01*
X31209Y17513D01*
X31162Y17511D01*
X31115Y17514D01*
X31069Y17521D01*
X31025Y17531D01*
X30983Y17547D01*
X30943Y17567D01*
X30905Y17590D01*
X30869Y17616D01*
X30836Y17646D01*
X30806Y17679D01*
X30780Y17715D01*
X30757Y17753D01*
X30737Y17793D01*
X30722Y17836D01*
X30711Y17880D01*
X30704Y17926D01*
X30702Y17973D01*
X30704Y18020D01*
G37*
G36*
X31030Y17901D02*
X31037Y17915D01*
X31045Y17926D01*
X31053Y17937D01*
X31061Y17946D01*
X31072Y17954D01*
X31083Y17961D01*
X31098Y17966D01*
X31113Y17969D01*
X31087Y17976D01*
X31062Y17985D01*
X31039Y17997D01*
X31020Y18013D01*
X31003Y18031D01*
X30990Y18052D01*
X30982Y18075D01*
X30978Y18100D01*
X30983Y18135D01*
X30993Y18164D01*
X31010Y18188D01*
X31033Y18208D01*
X31060Y18223D01*
X31091Y18232D01*
X31124Y18239D01*
X31160Y18240D01*
X31323Y18240D01*
X31323Y18092D01*
X31253Y18092D01*
X31253Y18179D01*
X31168Y18178D01*
X31142Y18176D01*
X31118Y18172D01*
X31097Y18165D01*
X31078Y18155D01*
X31064Y18140D01*
X31055Y18122D01*
X31053Y18099D01*
X31055Y18074D01*
X31064Y18054D01*
X31078Y18038D01*
X31096Y18026D01*
X31117Y18017D01*
X31141Y18011D01*
X31166Y18008D01*
X31253Y18008D01*
X31253Y18092D01*
X31323Y18092D01*
X31323Y17703D01*
X31253Y17703D01*
X31253Y17946D01*
X31182Y17945D01*
X31162Y17942D01*
X31146Y17938D01*
X31132Y17931D01*
X31122Y17921D01*
X31111Y17908D01*
X31102Y17893D01*
X31014Y17703D01*
X30940Y17703D01*
X31030Y17901D01*
X31030Y17901D01*
G37*
G36*
X25701Y14654D02*
X25807Y14611D01*
X25920Y14577D01*
X26039Y14547D01*
X26283Y14508D01*
X26525Y14489D01*
X26640Y14486D01*
X26864Y14495D01*
X27077Y14521D01*
X27281Y14563D01*
X27472Y14623D01*
X27652Y14698D01*
X27819Y14788D01*
X27973Y14894D01*
X28113Y15015D01*
X28240Y15150D01*
X28350Y15299D01*
X28446Y15461D01*
X28526Y15637D01*
X28588Y15827D01*
X28635Y16028D01*
X28662Y16241D01*
X28672Y16467D01*
X28662Y16682D01*
X28633Y16889D01*
X28585Y17086D01*
X28519Y17272D01*
X28437Y17446D01*
X28339Y17609D01*
X28225Y17760D01*
X28096Y17897D01*
X27954Y18021D01*
X27799Y18130D01*
X27631Y18224D01*
X27453Y18302D01*
X27263Y18365D01*
X27064Y18410D01*
X26856Y18438D01*
X26640Y18447D01*
X26410Y18438D01*
X26168Y18411D01*
X25931Y18367D01*
X25818Y18337D01*
X25713Y18303D01*
X25747Y17797D01*
X25839Y17835D01*
X25938Y17868D01*
X26040Y17895D01*
X26254Y17936D01*
X26467Y17955D01*
X26571Y17958D01*
X26734Y17950D01*
X26890Y17929D01*
X27037Y17893D01*
X27175Y17846D01*
X27304Y17784D01*
X27422Y17712D01*
X27531Y17629D01*
X27630Y17534D01*
X27718Y17429D01*
X27795Y17315D01*
X27862Y17193D01*
X27916Y17062D01*
X27959Y16923D01*
X27990Y16777D01*
X28009Y16625D01*
X28016Y16467D01*
X28009Y16304D01*
X27992Y16148D01*
X27962Y16000D01*
X27920Y15860D01*
X27868Y15728D01*
X27803Y15606D01*
X27728Y15492D01*
X27642Y15389D01*
X27545Y15296D01*
X27438Y15214D01*
X27321Y15143D01*
X27192Y15084D01*
X27054Y15037D01*
X26906Y15003D01*
X26750Y14983D01*
X26582Y14976D01*
X26363Y14985D01*
X26147Y15014D01*
X26040Y15037D01*
X25936Y15065D01*
X25785Y15121D01*
X25736Y15142D01*
X25701Y14654D01*
X25701Y14654D01*
G37*
G36*
X24866Y14550D02*
X24866Y18389D01*
X24239Y18389D01*
X24239Y14550D01*
X24866Y14550D01*
X24866Y14550D01*
G37*
G36*
X21021Y15948D02*
X21067Y16051D01*
X21120Y16144D01*
X21149Y16187D01*
X21179Y16228D01*
X21211Y16266D01*
X21245Y16301D01*
X21280Y16334D01*
X21319Y16363D01*
X21358Y16390D01*
X21399Y16413D01*
X21443Y16433D01*
X21489Y16450D01*
X21535Y16463D01*
X21585Y16472D01*
X21496Y16490D01*
X21409Y16513D01*
X21325Y16542D01*
X21243Y16578D01*
X21167Y16618D01*
X21095Y16665D01*
X21026Y16717D01*
X20964Y16774D01*
X20907Y16836D01*
X20856Y16903D01*
X20811Y16975D01*
X20774Y17051D01*
X20745Y17132D01*
X20723Y17217D01*
X20709Y17306D01*
X20705Y17399D01*
X20713Y17545D01*
X20736Y17675D01*
X20774Y17792D01*
X20825Y17896D01*
X20889Y17989D01*
X20964Y18070D01*
X21049Y18139D01*
X21143Y18199D01*
X21244Y18249D01*
X21353Y18290D01*
X21467Y18324D01*
X21586Y18348D01*
X21834Y18380D01*
X23226Y18389D01*
X23226Y17333D01*
X22610Y17333D01*
X22610Y17935D01*
X22027Y17930D01*
X21868Y17914D01*
X21794Y17900D01*
X21723Y17881D01*
X21658Y17858D01*
X21597Y17830D01*
X21542Y17795D01*
X21492Y17754D01*
X21449Y17707D01*
X21412Y17653D01*
X21382Y17591D01*
X21361Y17521D01*
X21348Y17442D01*
X21343Y17353D01*
X21349Y17266D01*
X21364Y17185D01*
X21389Y17112D01*
X21421Y17045D01*
X21462Y16986D01*
X21510Y16933D01*
X21564Y16886D01*
X21623Y16844D01*
X21688Y16810D01*
X21757Y16780D01*
X21829Y16755D01*
X21905Y16735D01*
X21982Y16721D01*
X22061Y16710D01*
X22610Y16703D01*
X22610Y17333D01*
X23226Y17333D01*
X23226Y14550D01*
X22610Y14550D01*
X22610Y16242D01*
X22161Y16237D01*
X22101Y16230D01*
X22045Y16219D01*
X21994Y16205D01*
X21947Y16187D01*
X21904Y16165D01*
X21863Y16139D01*
X21826Y16108D01*
X21790Y16072D01*
X21758Y16031D01*
X21726Y15984D01*
X21696Y15933D01*
X21637Y15812D01*
X21136Y14550D01*
X20451Y14550D01*
X21021Y15948D01*
X21021Y15948D01*
G37*
G36*
X17055Y14654D02*
X17161Y14611D01*
X17273Y14577D01*
X17392Y14547D01*
X17636Y14508D01*
X17878Y14489D01*
X17993Y14486D01*
X18217Y14495D01*
X18430Y14521D01*
X18634Y14563D01*
X18825Y14623D01*
X19005Y14698D01*
X19172Y14788D01*
X19326Y14894D01*
X19467Y15015D01*
X19593Y15150D01*
X19704Y15299D01*
X19800Y15461D01*
X19879Y15637D01*
X19943Y15827D01*
X19988Y16028D01*
X20016Y16241D01*
X20025Y16467D01*
X20015Y16682D01*
X19986Y16889D01*
X19938Y17086D01*
X19873Y17272D01*
X19790Y17446D01*
X19692Y17609D01*
X19578Y17760D01*
X19450Y17897D01*
X19307Y18021D01*
X19152Y18130D01*
X18985Y18224D01*
X18806Y18302D01*
X18616Y18365D01*
X18418Y18410D01*
X18209Y18438D01*
X17993Y18447D01*
X17763Y18438D01*
X17521Y18411D01*
X17284Y18367D01*
X17171Y18337D01*
X17066Y18303D01*
X17101Y17797D01*
X17193Y17835D01*
X17291Y17868D01*
X17394Y17895D01*
X17607Y17936D01*
X17820Y17955D01*
X17924Y17958D01*
X18089Y17950D01*
X18244Y17929D01*
X18391Y17893D01*
X18529Y17846D01*
X18657Y17784D01*
X18776Y17712D01*
X18885Y17629D01*
X18983Y17534D01*
X19071Y17429D01*
X19148Y17315D01*
X19215Y17193D01*
X19270Y17062D01*
X19312Y16923D01*
X19343Y16777D01*
X19363Y16625D01*
X19369Y16467D01*
X19363Y16304D01*
X19345Y16148D01*
X19315Y16000D01*
X19273Y15860D01*
X19221Y15728D01*
X19156Y15606D01*
X19081Y15492D01*
X18995Y15389D01*
X18899Y15296D01*
X18792Y15214D01*
X18674Y15143D01*
X18546Y15084D01*
X18407Y15037D01*
X18260Y15003D01*
X18103Y14983D01*
X17881Y14976D01*
X17661Y14990D01*
X17447Y15025D01*
X17341Y15050D01*
X17239Y15082D01*
X17089Y15142D01*
X17055Y14654D01*
X17055Y14654D01*
G37*
G36*
X15639Y15943D02*
X15635Y15840D01*
X15626Y15741D01*
X15608Y15646D01*
X15584Y15556D01*
X15554Y15471D01*
X15516Y15391D01*
X15471Y15318D01*
X15420Y15250D01*
X15362Y15188D01*
X15296Y15134D01*
X15223Y15088D01*
X15143Y15049D01*
X15056Y15018D01*
X14962Y14995D01*
X14861Y14980D01*
X14753Y14976D01*
X14644Y14980D01*
X14542Y14995D01*
X14447Y15017D01*
X14360Y15048D01*
X14280Y15087D01*
X14207Y15133D01*
X14141Y15187D01*
X14081Y15248D01*
X14029Y15315D01*
X13984Y15389D01*
X13946Y15468D01*
X13915Y15554D01*
X13891Y15644D01*
X13873Y15739D01*
X13864Y15839D01*
X13860Y18389D01*
X13232Y18389D01*
X13239Y15779D01*
X13262Y15620D01*
X13296Y15469D01*
X13345Y15329D01*
X13405Y15199D01*
X13478Y15079D01*
X13563Y14969D01*
X13658Y14870D01*
X13764Y14782D01*
X13880Y14705D01*
X14006Y14639D01*
X14141Y14585D01*
X14283Y14542D01*
X14435Y14511D01*
X14593Y14493D01*
X14758Y14486D01*
X14923Y14493D01*
X15080Y14510D01*
X15231Y14540D01*
X15372Y14581D01*
X15506Y14633D01*
X15630Y14698D01*
X15744Y14773D01*
X15849Y14859D01*
X15942Y14957D01*
X16026Y15065D01*
X16097Y15183D01*
X16157Y15312D01*
X16204Y15451D01*
X16238Y15602D01*
X16259Y15761D01*
X16267Y18389D01*
X15639Y18389D01*
X15639Y15943D01*
X15639Y15943D01*
G37*
G36*
X12179Y14550D02*
X12179Y18389D01*
X11551Y18389D01*
X11551Y14550D01*
X12179Y14550D01*
X12179Y14550D01*
G37*
G36*
X9686Y14550D02*
X9686Y17871D01*
X10855Y17871D01*
X10855Y18389D01*
X7885Y18389D01*
X7885Y17871D01*
X9059Y17871D01*
X9059Y14550D01*
X9686Y14550D01*
G37*
G36*
X7286Y15177D02*
X7174Y15123D01*
X7063Y15078D01*
X6952Y15040D01*
X6840Y15010D01*
X6725Y14987D01*
X6607Y14971D01*
X6359Y14958D01*
X6290Y14961D01*
X6221Y14967D01*
X6154Y14978D01*
X6088Y14993D01*
X6024Y15012D01*
X5964Y15037D01*
X5906Y15067D01*
X5853Y15103D01*
X5803Y15142D01*
X5758Y15189D01*
X5719Y15241D01*
X5685Y15298D01*
X5659Y15362D01*
X5638Y15432D01*
X5626Y15509D01*
X5622Y15591D01*
X5625Y15658D01*
X5636Y15719D01*
X5653Y15776D01*
X5676Y15830D01*
X5704Y15879D01*
X5738Y15926D01*
X5776Y15969D01*
X5819Y16010D01*
X5867Y16049D01*
X5972Y16122D01*
X6653Y16462D01*
X6786Y16538D01*
X6908Y16624D01*
X6965Y16672D01*
X7018Y16722D01*
X7066Y16776D01*
X7111Y16834D01*
X7151Y16896D01*
X7185Y16964D01*
X7214Y17035D01*
X7237Y17112D01*
X7254Y17194D01*
X7265Y17282D01*
X7268Y17376D01*
X7260Y17514D01*
X7239Y17640D01*
X7204Y17757D01*
X7156Y17864D01*
X7097Y17962D01*
X7028Y18049D01*
X6949Y18127D01*
X6863Y18196D01*
X6769Y18257D01*
X6670Y18309D01*
X6565Y18352D01*
X6457Y18387D01*
X6347Y18413D01*
X6233Y18432D01*
X6121Y18443D01*
X5832Y18442D01*
X5608Y18424D01*
X5394Y18390D01*
X5138Y18326D01*
X5173Y17820D01*
X5267Y17858D01*
X5366Y17890D01*
X5467Y17916D01*
X5671Y17954D01*
X5875Y17973D01*
X6034Y17973D01*
X6095Y17968D01*
X6156Y17960D01*
X6217Y17946D01*
X6276Y17930D01*
X6333Y17908D01*
X6388Y17883D01*
X6440Y17853D01*
X6487Y17817D01*
X6530Y17776D01*
X6569Y17730D01*
X6602Y17678D01*
X6627Y17621D01*
X6648Y17557D01*
X6660Y17487D01*
X6664Y17411D01*
X6661Y17353D01*
X6652Y17300D01*
X6639Y17251D01*
X6620Y17204D01*
X6596Y17161D01*
X6569Y17120D01*
X6537Y17083D01*
X6502Y17048D01*
X6464Y17014D01*
X6422Y16982D01*
X6332Y16925D01*
X5646Y16593D01*
X5493Y16504D01*
X5422Y16457D01*
X5355Y16407D01*
X5293Y16353D01*
X5236Y16294D01*
X5183Y16232D01*
X5137Y16165D01*
X5097Y16092D01*
X5063Y16013D01*
X5036Y15927D01*
X5017Y15835D01*
X5004Y15734D01*
X5000Y15626D01*
X5007Y15484D01*
X5027Y15352D01*
X5060Y15230D01*
X5104Y15118D01*
X5160Y15015D01*
X5227Y14922D01*
X5303Y14838D01*
X5389Y14763D01*
X5483Y14697D01*
X5585Y14640D01*
X5695Y14594D01*
X5811Y14555D01*
X5934Y14524D01*
X6062Y14503D01*
X6194Y14491D01*
X6387Y14487D01*
X6625Y14501D01*
X6874Y14533D01*
X7128Y14587D01*
X7314Y14642D01*
X7286Y15177D01*
X7286Y15177D01*
G37*
D11*
X42939Y1839D02*
X44543Y1839D01*
X45272Y2568D01*
X45272Y3734D01*
X44543Y4464D01*
X43376Y4464D01*
X42647Y3734D01*
X42647Y3151D01*
X45272Y3151D01*
D11*
X41480Y5339D02*
X40897Y5339D01*
X40897Y1839D01*
D11*
X41480Y1839D02*
X40314Y1839D01*
D11*
X36814Y1839D02*
X38418Y1839D01*
X39147Y2568D01*
X39147Y3734D01*
X38418Y4464D01*
X37251Y4464D01*
X36522Y3734D01*
X36522Y3151D01*
X39147Y3151D01*
D11*
X32730Y3734D02*
X32730Y3880D01*
X33459Y4464D01*
X34626Y4464D01*
X35355Y3734D01*
X35355Y2568D01*
X34626Y1839D01*
X33459Y1839D01*
X32730Y2422D01*
X32730Y2568D01*
D11*
X31126Y5339D02*
X31126Y2422D01*
X30543Y1839D01*
X29668Y1839D01*
X29230Y2276D01*
X29230Y2422D01*
D11*
X31564Y4464D02*
X30397Y4464D01*
D11*
X28064Y1839D02*
X28064Y4464D01*
D11*
X28064Y3297D02*
X27043Y4464D01*
X25876Y4464D01*
X25439Y4026D01*
X25439Y3880D01*
D11*
X24272Y2568D02*
X24272Y3734D01*
X23543Y4464D01*
X22376Y4464D01*
X21647Y3734D01*
X21647Y2568D01*
X22376Y1839D01*
X23543Y1839D01*
X24272Y2568D01*
D11*
X20480Y5339D02*
X20480Y1839D01*
X18584Y1839D01*
X17855Y2422D01*
X17855Y3734D01*
X18584Y4464D01*
X19605Y4464D01*
X20480Y3589D01*
D11*
X16397Y5339D02*
X16397Y5339D01*
D11*
X16689Y4464D02*
X16397Y4464D01*
X16397Y1839D01*
D11*
X16689Y1839D02*
X16105Y1839D01*
D11*
X14939Y1839D02*
X14939Y4464D01*
D11*
X14939Y3297D02*
X13918Y4464D01*
X12751Y4464D01*
X12314Y4026D01*
X12314Y3880D01*
D11*
X11147Y1839D02*
X11147Y4464D01*
D11*
X11147Y3297D02*
X10126Y4464D01*
X8959Y4464D01*
X8522Y4026D01*
X8522Y3880D01*
D11*
X6918Y4464D02*
X5605Y4464D01*
X4876Y3880D01*
X4876Y1839D01*
X6772Y1839D01*
X7355Y2568D01*
X6772Y3297D01*
X4876Y3297D01*
M02*
