G75*
G71*
%OFA0B0*%
%FSLAX23Y23*%
%IPPOS*%
%LPD*%
%ADD10C,0.1*%
%ADD11C,0.508*%
%ADD12C,1.016*%
%ADD13C,0.305*%
%ADD14C,2.032*%
%LPD*%D10*
X0Y0D02*
X0Y100D01*
X0Y200D01*
X0Y299D01*
X0Y399D01*
X0Y499D01*
X0Y599D01*
X0Y699D01*
X0Y798D01*
X0Y898D01*
X0Y998D01*
X0Y1098D01*
X0Y1198D01*
X0Y1297D01*
X0Y1397D01*
X0Y1497D01*
X0Y1597D01*
X0Y1697D01*
X0Y1796D01*
X0Y1896D01*
X0Y1996D01*
X0Y2096D01*
X0Y2196D01*
X0Y2295D01*
X0Y2395D01*
X0Y2495D01*
X0Y2595D01*
X0Y2695D01*
X0Y2794D01*
X0Y2894D01*
X0Y2994D01*
X0Y3094D01*
X0Y3193D01*
X0Y3293D01*
X0Y3393D01*
X0Y3493D01*
X0Y3593D01*
X0Y3692D01*
X0Y3792D01*
X0Y3892D01*
X0Y3992D01*
X0Y4092D01*
X0Y4191D01*
X0Y4291D01*
X0Y4391D01*
X0Y4491D01*
X0Y4591D01*
X0Y4690D01*
X0Y4790D01*
X0Y4890D01*
X0Y4990D01*
X0Y5090D01*
X0Y5189D01*
X0Y5289D01*
X0Y5389D01*
X0Y5489D01*
X0Y5589D01*
X0Y5688D01*
X0Y5788D01*
X0Y5888D01*
X0Y5988D01*
X0Y6088D01*
X0Y6187D01*
X0Y6287D01*
X0Y6387D01*
X0Y6487D01*
X0Y6587D01*
X0Y6686D01*
X0Y6786D01*
X0Y6886D01*
X0Y6986D01*
X0Y7086D01*
X0Y7185D01*
X0Y7285D01*
X0Y7385D01*
X0Y7485D01*
X0Y7585D01*
X0Y7684D01*
X0Y7784D01*
X0Y7884D01*
X0Y7984D01*
X0Y8084D01*
X0Y8183D01*
X0Y8283D01*
X0Y8383D01*
X0Y8483D01*
X0Y8583D01*
X0Y8682D01*
X0Y8782D01*
X0Y8882D01*
X0Y8982D01*
X0Y9081D01*
X0Y9181D01*
X0Y9281D01*
X0Y9381D01*
X0Y9481D01*
X0Y9580D01*
X0Y9680D01*
X0Y9780D01*
X0Y9880D01*
X0Y9980D01*
X0Y10079D01*
X0Y10179D01*
X0Y10279D01*
X0Y10379D01*
X0Y10479D01*
X0Y10578D01*
X0Y10678D01*
X0Y10778D01*
X0Y10878D01*
X0Y10978D01*
X0Y11077D01*
X0Y11177D01*
X0Y11277D01*
X0Y11377D01*
X0Y11477D01*
X0Y11576D01*
X0Y11676D01*
X0Y11776D01*
X0Y11876D01*
X0Y11976D01*
X0Y12075D01*
X0Y12175D01*
X0Y12275D01*
X0Y12375D01*
X0Y12475D01*
X0Y12574D01*
X0Y12674D01*
X0Y12774D01*
X0Y12874D01*
X0Y12974D01*
X0Y13073D01*
X0Y13173D01*
X0Y13273D01*
X0Y13373D01*
X0Y13473D01*
X0Y13572D01*
X0Y13672D01*
X0Y13772D01*
X0Y13872D01*
X0Y13972D01*
X0Y14071D01*
X0Y14171D01*
X0Y14271D01*
X0Y14371D01*
X0Y14471D01*
X0Y14570D01*
X0Y14670D01*
X0Y14770D01*
X0Y14870D01*
X0Y14970D01*
X0Y15069D01*
X0Y15169D01*
X0Y15269D01*
X0Y15369D01*
X0Y15469D01*
X0Y15568D01*
X0Y15668D01*
X0Y15768D01*
X0Y15868D01*
X0Y15967D01*
X0Y16067D01*
X0Y16167D01*
X0Y16267D01*
X0Y16367D01*
X0Y16466D01*
X0Y16566D01*
X0Y16666D01*
X0Y16766D01*
X0Y16866D01*
X0Y16965D01*
X0Y17065D01*
X0Y17165D01*
X0Y17265D01*
X0Y17365D01*
X0Y17464D01*
X0Y17564D01*
X0Y17664D01*
X0Y17764D01*
X0Y17864D01*
X0Y17963D01*
X0Y18063D01*
X0Y18163D01*
X0Y18263D01*
X0Y18363D01*
X0Y18462D01*
X0Y18562D01*
X0Y18662D01*
X0Y18762D01*
X0Y18862D01*
X0Y18961D01*
X0Y19061D01*
X0Y19161D01*
X0Y19261D01*
X0Y19361D01*
X0Y19460D01*
X0Y19560D01*
X0Y19660D01*
X0Y19760D01*
X0Y19860D01*
X0Y19959D01*
X0Y20059D01*
X0Y20159D01*
X0Y20259D01*
X0Y20359D01*
X0Y20458D01*
X0Y20558D01*
X0Y20658D01*
X0Y20758D01*
X0Y20858D01*
X0Y20957D01*
X0Y21057D01*
X0Y21157D01*
X0Y21257D01*
X0Y21357D01*
X0Y21456D01*
X0Y21556D01*
X0Y21656D01*
X0Y21756D01*
X0Y21856D01*
X0Y21955D01*
X0Y22055D01*
X0Y22155D01*
X0Y22255D01*
X0Y22355D01*
X0Y22454D01*
X0Y22554D01*
X0Y22654D01*
X0Y22754D01*
X0Y22853D01*
X0Y22953D01*
X0Y23053D01*
X0Y23153D01*
X0Y23253D01*
X0Y23352D01*
X0Y23452D01*
X0Y23552D01*
X0Y23652D01*
X0Y23752D01*
X0Y23851D01*
X0Y23951D01*
X0Y24051D01*
X0Y24151D01*
X0Y24251D01*
X0Y24350D01*
X0Y24450D01*
X0Y24550D01*
X0Y24650D01*
X0Y24750D01*
X0Y24849D01*
X0Y24949D01*
X0Y25049D01*
X0Y25149D01*
X0Y25249D01*
X0Y25348D01*
X0Y25448D01*
X0Y25548D01*
X0Y25648D01*
X0Y25748D01*
X0Y25847D01*
X0Y25947D01*
X0Y26047D01*
X0Y26147D01*
X0Y26247D01*
X0Y26346D01*
X0Y26446D01*
X0Y26546D01*
X0Y26646D01*
X0Y26746D01*
X0Y26845D01*
X0Y26945D01*
X0Y27045D01*
X0Y27145D01*
X0Y27245D01*
X0Y27344D01*
X0Y27444D01*
X0Y27544D01*
X0Y27644D01*
X0Y27744D01*
X0Y27843D01*
X0Y27943D01*
X0Y28043D01*
X0Y28143D01*
X0Y28243D01*
X0Y28342D01*
X0Y28442D01*
X0Y28542D01*
X0Y28642D01*
X0Y28742D01*
X0Y28841D01*
X0Y28941D01*
X0Y29041D01*
X0Y29141D01*
X0Y29241D01*
X0Y29340D01*
X0Y29440D01*
X0Y29540D01*
X0Y29640D01*
X0Y29740D01*
X0Y29839D01*
X0Y29939D01*
X0Y30039D01*
X0Y30139D01*
X0Y30239D01*
X0Y30338D01*
X0Y30438D01*
X0Y30538D01*
X0Y30638D01*
X0Y30737D01*
X0Y30837D01*
X0Y30937D01*
X0Y31037D01*
X0Y31137D01*
X0Y31236D01*
X0Y31336D01*
X0Y31436D01*
X0Y31536D01*
X0Y31636D01*
X0Y31735D01*
X0Y31835D01*
X0Y31935D01*
X0Y32035D01*
X0Y32135D01*
X0Y32234D01*
X0Y32334D01*
X0Y32434D01*
X0Y32534D01*
X0Y32634D01*
X0Y32733D01*
X0Y32833D01*
X0Y32933D01*
X100Y32933D01*
X200Y32933D01*
X300Y32933D01*
X400Y32933D01*
X500Y32933D01*
X600Y32933D01*
X700Y32933D01*
X800Y32933D01*
X900Y32933D01*
X1000Y32933D01*
X1100Y32933D01*
X1200Y32933D01*
X1300Y32933D01*
X1400Y32933D01*
X1500Y32933D01*
X1600Y32933D01*
X1700Y32933D01*
X1800Y32933D01*
X1900Y32933D01*
X2000Y32933D01*
X2100Y32933D01*
X2200Y32933D01*
X2300Y32933D01*
X2400Y32933D01*
X2500Y32933D01*
X2600Y32933D01*
X2700Y32933D01*
X2800Y32933D01*
X2900Y32933D01*
X3000Y32933D01*
X3100Y32933D01*
X3200Y32933D01*
X3300Y32933D01*
X3400Y32933D01*
X3500Y32933D01*
X3600Y32933D01*
X3700Y32933D01*
X3800Y32933D01*
X3900Y32933D01*
X4000Y32933D01*
X4100Y32933D01*
X4200Y32933D01*
X4300Y32933D01*
X4400Y32933D01*
X4500Y32933D01*
X4600Y32933D01*
X4700Y32933D01*
X4800Y32933D01*
X4900Y32933D01*
X5000Y32933D01*
X5100Y32933D01*
X5200Y32933D01*
X5300Y32933D01*
X5400Y32933D01*
X5500Y32933D01*
X5600Y32933D01*
X5700Y32933D01*
X5800Y32933D01*
X5900Y32933D01*
X6000Y32933D01*
X6100Y32933D01*
X6200Y32933D01*
X6300Y32933D01*
X6400Y32933D01*
X6500Y32933D01*
X6600Y32933D01*
X6700Y32933D01*
X6800Y32933D01*
X6900Y32933D01*
X7000Y32933D01*
X7100Y32933D01*
X7200Y32933D01*
X7300Y32933D01*
X7400Y32933D01*
X7500Y32933D01*
X7600Y32933D01*
X7700Y32933D01*
X7800Y32933D01*
X7900Y32933D01*
X8000Y32933D01*
X8100Y32933D01*
X8200Y32933D01*
X8300Y32933D01*
X8400Y32933D01*
X8500Y32933D01*
X8600Y32933D01*
X8700Y32933D01*
X8800Y32933D01*
X8900Y32933D01*
X9000Y32933D01*
X9100Y32933D01*
X9200Y32933D01*
X9300Y32933D01*
X9400Y32933D01*
X9500Y32933D01*
X9600Y32933D01*
X9700Y32933D01*
X9800Y32933D01*
X9900Y32933D01*
X10000Y32933D01*
X10100Y32933D01*
X10200Y32933D01*
X10300Y32933D01*
X10400Y32933D01*
X10500Y32933D01*
X10600Y32933D01*
X10700Y32933D01*
X10800Y32933D01*
X10900Y32933D01*
X11000Y32933D01*
X11100Y32933D01*
X11200Y32933D01*
X11300Y32933D01*
X11400Y32933D01*
X11500Y32933D01*
X11600Y32933D01*
X11700Y32933D01*
X11800Y32933D01*
X11900Y32933D01*
X12000Y32933D01*
X12100Y32933D01*
X12200Y32933D01*
X12300Y32933D01*
X12400Y32933D01*
X12500Y32933D01*
X12600Y32933D01*
X12700Y32933D01*
X12800Y32933D01*
X12900Y32933D01*
X13000Y32933D01*
X13100Y32933D01*
X13200Y32933D01*
X13300Y32933D01*
X13400Y32933D01*
X13500Y32933D01*
X13600Y32933D01*
X13700Y32933D01*
X13800Y32933D01*
X13900Y32933D01*
X14000Y32933D01*
X14100Y32933D01*
X14200Y32933D01*
X14300Y32933D01*
X14400Y32933D01*
X14500Y32933D01*
X14600Y32933D01*
X14700Y32933D01*
X14800Y32933D01*
X14900Y32933D01*
X15000Y32933D01*
X15100Y32933D01*
X15200Y32933D01*
X15300Y32933D01*
X15400Y32933D01*
X15500Y32933D01*
X15600Y32933D01*
X15700Y32933D01*
X15800Y32933D01*
X15900Y32933D01*
X16000Y32933D01*
X16100Y32933D01*
X16200Y32933D01*
X16300Y32933D01*
X16400Y32933D01*
X16500Y32933D01*
X16600Y32933D01*
X16700Y32933D01*
X16800Y32933D01*
X16900Y32933D01*
X17000Y32933D01*
X17100Y32933D01*
X17200Y32933D01*
X17300Y32933D01*
X17400Y32933D01*
X17500Y32933D01*
X17600Y32933D01*
X17700Y32933D01*
X17800Y32933D01*
X17900Y32933D01*
X18000Y32933D01*
X18100Y32933D01*
X18200Y32933D01*
X18300Y32933D01*
X18400Y32933D01*
X18500Y32933D01*
X18600Y32933D01*
X18700Y32933D01*
X18800Y32933D01*
X18900Y32933D01*
X19000Y32933D01*
X19100Y32933D01*
X19200Y32933D01*
X19300Y32933D01*
X19400Y32933D01*
X19500Y32933D01*
X19600Y32933D01*
X19700Y32933D01*
X19800Y32933D01*
X19900Y32933D01*
X20000Y32933D01*
X20100Y32933D01*
X20200Y32933D01*
X20300Y32933D01*
X20400Y32933D01*
X20500Y32933D01*
X20600Y32933D01*
X20700Y32933D01*
X20800Y32933D01*
X20900Y32933D01*
X21000Y32933D01*
X21100Y32933D01*
X21200Y32933D01*
X21300Y32933D01*
X21400Y32933D01*
X21500Y32933D01*
X21600Y32933D01*
X21700Y32933D01*
X21800Y32933D01*
X21900Y32933D01*
X22000Y32933D01*
X22100Y32933D01*
X22200Y32933D01*
X22300Y32933D01*
X22400Y32933D01*
X22500Y32933D01*
X22600Y32933D01*
X22700Y32933D01*
X22800Y32933D01*
X22900Y32933D01*
X23000Y32933D01*
X23100Y32933D01*
X23200Y32933D01*
X23300Y32933D01*
X23400Y32933D01*
X23500Y32933D01*
X23600Y32933D01*
X23700Y32933D01*
X23800Y32933D01*
X23900Y32933D01*
X24000Y32933D01*
X24100Y32933D01*
X24200Y32933D01*
X24300Y32933D01*
X24400Y32933D01*
X24500Y32933D01*
X24600Y32933D01*
X24700Y32933D01*
X24800Y32933D01*
X24900Y32933D01*
X25000Y32933D01*
X25100Y32933D01*
X25200Y32933D01*
X25300Y32933D01*
X25400Y32933D01*
X25500Y32933D01*
X25600Y32933D01*
X25700Y32933D01*
X25800Y32933D01*
X25900Y32933D01*
X26000Y32933D01*
X26100Y32933D01*
X26200Y32933D01*
X26300Y32933D01*
X26400Y32933D01*
X26500Y32933D01*
X26600Y32933D01*
X26700Y32933D01*
X26800Y32933D01*
X26900Y32933D01*
X27000Y32933D01*
X27100Y32933D01*
X27200Y32933D01*
X27300Y32933D01*
X27400Y32933D01*
X27500Y32933D01*
X27600Y32933D01*
X27700Y32933D01*
X27800Y32933D01*
X27900Y32933D01*
X28000Y32933D01*
X28100Y32933D01*
X28200Y32933D01*
X28300Y32933D01*
X28400Y32933D01*
X28500Y32933D01*
X28600Y32933D01*
X28700Y32933D01*
X28800Y32933D01*
X28900Y32933D01*
X29000Y32933D01*
X29100Y32933D01*
X29200Y32933D01*
X29300Y32933D01*
X29400Y32933D01*
X29500Y32933D01*
X29600Y32933D01*
X29700Y32933D01*
X29800Y32933D01*
X29900Y32933D01*
X30000Y32933D01*
X30100Y32933D01*
X30200Y32933D01*
X30300Y32933D01*
X30400Y32933D01*
X30500Y32933D01*
X30600Y32933D01*
X30700Y32933D01*
X30800Y32933D01*
X30900Y32933D01*
X31000Y32933D01*
X31100Y32933D01*
X31200Y32933D01*
X31300Y32933D01*
X31400Y32933D01*
X31500Y32933D01*
X31600Y32933D01*
X31700Y32933D01*
X31800Y32933D01*
X31900Y32933D01*
X32000Y32933D01*
X32100Y32933D01*
X32200Y32933D01*
X32300Y32933D01*
X32400Y32933D01*
X32500Y32933D01*
X32600Y32933D01*
X32700Y32933D01*
X32800Y32933D01*
X32900Y32933D01*
X33000Y32933D01*
X33100Y32933D01*
X33200Y32933D01*
X33300Y32933D01*
X33400Y32933D01*
X33500Y32933D01*
X33600Y32933D01*
X33700Y32933D01*
X33800Y32933D01*
X33900Y32933D01*
X34000Y32933D01*
X34100Y32933D01*
X34200Y32933D01*
X34300Y32933D01*
X34400Y32933D01*
X34500Y32933D01*
X34600Y32933D01*
X34700Y32933D01*
X34800Y32933D01*
X34900Y32933D01*
X35000Y32933D01*
X35100Y32933D01*
X35200Y32933D01*
X35300Y32933D01*
X35400Y32933D01*
X35500Y32933D01*
X35600Y32933D01*
X35700Y32933D01*
X35800Y32933D01*
X35900Y32933D01*
X36000Y32933D01*
X36100Y32933D01*
X36200Y32933D01*
X36300Y32933D01*
X36400Y32933D01*
X36500Y32933D01*
X36600Y32933D01*
X36700Y32933D01*
X36800Y32933D01*
X36900Y32933D01*
X37000Y32933D01*
X37100Y32933D01*
X37200Y32933D01*
X37300Y32933D01*
X37400Y32933D01*
X37500Y32933D01*
X37600Y32933D01*
X37700Y32933D01*
X37800Y32933D01*
X37900Y32933D01*
X38000Y32933D01*
X38100Y32933D01*
X38200Y32933D01*
X38300Y32933D01*
X38400Y32933D01*
X38500Y32933D01*
X38600Y32933D01*
X38700Y32933D01*
X38800Y32933D01*
X38900Y32933D01*
X39000Y32933D01*
X39100Y32933D01*
X39200Y32933D01*
X39300Y32933D01*
X39400Y32933D01*
X39500Y32933D01*
X39600Y32933D01*
X39700Y32933D01*
X39800Y32933D01*
X39900Y32933D01*
X40000Y32933D01*
X40100Y32933D01*
X40200Y32933D01*
X40300Y32933D01*
X40400Y32933D01*
X40500Y32933D01*
X40600Y32933D01*
X40700Y32933D01*
X40800Y32933D01*
X40900Y32933D01*
X41000Y32933D01*
X41100Y32933D01*
X41200Y32933D01*
X41300Y32933D01*
X41400Y32933D01*
X41500Y32933D01*
X41600Y32933D01*
X41700Y32933D01*
X41800Y32933D01*
X41900Y32933D01*
X42000Y32933D01*
X42100Y32933D01*
X42200Y32933D01*
X42300Y32933D01*
X42400Y32933D01*
X42500Y32933D01*
X42600Y32933D01*
X42700Y32933D01*
X42800Y32933D01*
X42900Y32933D01*
X43000Y32933D01*
X43100Y32933D01*
X43200Y32933D01*
X43300Y32933D01*
X43400Y32933D01*
X43500Y32933D01*
X43600Y32933D01*
X43700Y32933D01*
X43800Y32933D01*
X43900Y32933D01*
X44000Y32933D01*
X44100Y32933D01*
X44200Y32933D01*
X44300Y32933D01*
X44400Y32933D01*
X44500Y32933D01*
X44600Y32933D01*
X44700Y32933D01*
X44800Y32933D01*
X44900Y32933D01*
X45000Y32933D01*
X45100Y32933D01*
X45200Y32933D01*
X45300Y32933D01*
X45400Y32933D01*
X45500Y32933D01*
X45600Y32933D01*
X45700Y32933D01*
X45800Y32933D01*
X45900Y32933D01*
X46000Y32933D01*
X46100Y32933D01*
X46200Y32933D01*
X46300Y32933D01*
X46400Y32933D01*
X46500Y32933D01*
X46600Y32933D01*
X46700Y32933D01*
X46800Y32933D01*
X46900Y32933D01*
X47000Y32933D01*
X47100Y32933D01*
X47200Y32933D01*
X47300Y32933D01*
X47400Y32933D01*
X47500Y32933D01*
X47600Y32933D01*
X47700Y32933D01*
X47800Y32933D01*
X47900Y32933D01*
X48000Y32933D01*
X48100Y32933D01*
X48200Y32933D01*
X48300Y32933D01*
X48400Y32933D01*
X48500Y32933D01*
X48600Y32933D01*
X48700Y32933D01*
X48800Y32933D01*
X48900Y32933D01*
X49000Y32933D01*
X49100Y32933D01*
X49200Y32933D01*
X49300Y32933D01*
X49400Y32933D01*
X49500Y32933D01*
X49600Y32933D01*
X49700Y32933D01*
X49800Y32933D01*
X49900Y32933D01*
X50000Y32933D01*
X50000Y32833D01*
X50000Y32734D01*
X50000Y32634D01*
X50000Y32534D01*
X50000Y32434D01*
X50000Y32334D01*
X50000Y32235D01*
X50000Y32135D01*
X50000Y32035D01*
X50000Y31935D01*
X50000Y31835D01*
X50000Y31736D01*
X50000Y31636D01*
X50000Y31536D01*
X50000Y31436D01*
X50000Y31336D01*
X50000Y31237D01*
X50000Y31137D01*
X50000Y31037D01*
X50000Y30937D01*
X50000Y30837D01*
X50000Y30738D01*
X50000Y30638D01*
X50000Y30538D01*
X50000Y30438D01*
X50000Y30338D01*
X50000Y30239D01*
X50000Y30139D01*
X50000Y30039D01*
X50000Y29939D01*
X50000Y29839D01*
X50000Y29740D01*
X50000Y29640D01*
X50000Y29540D01*
X50000Y29440D01*
X50000Y29340D01*
X50000Y29241D01*
X50000Y29141D01*
X50000Y29041D01*
X50000Y28941D01*
X50000Y28841D01*
X50000Y28742D01*
X50000Y28642D01*
X50000Y28542D01*
X50000Y28442D01*
X50000Y28342D01*
X50000Y28243D01*
X50000Y28143D01*
X50000Y28043D01*
X50000Y27943D01*
X50000Y27843D01*
X50000Y27744D01*
X50000Y27644D01*
X50000Y27544D01*
X50000Y27444D01*
X50000Y27344D01*
X50000Y27245D01*
X50000Y27145D01*
X50000Y27045D01*
X50000Y26945D01*
X50000Y26845D01*
X50000Y26746D01*
X50000Y26646D01*
X50000Y26546D01*
X50000Y26446D01*
X50000Y26347D01*
X50000Y26247D01*
X50000Y26147D01*
X50000Y26047D01*
X50000Y25947D01*
X50000Y25848D01*
X50000Y25748D01*
X50000Y25648D01*
X50000Y25548D01*
X50000Y25448D01*
X50000Y25349D01*
X50000Y25249D01*
X50000Y25149D01*
X50000Y25049D01*
X50000Y24949D01*
X50000Y24850D01*
X50000Y24750D01*
X50000Y24650D01*
X50000Y24550D01*
X50000Y24450D01*
X50000Y24351D01*
X50000Y24251D01*
X50000Y24151D01*
X50000Y24051D01*
X50000Y23951D01*
X50000Y23852D01*
X50000Y23752D01*
X50000Y23652D01*
X50000Y23552D01*
X50000Y23452D01*
X50000Y23353D01*
X50000Y23253D01*
X50000Y23153D01*
X50000Y23053D01*
X50000Y22953D01*
X50000Y22854D01*
X50000Y22754D01*
X50000Y22654D01*
X50000Y22554D01*
X50000Y22454D01*
X50000Y22355D01*
X50000Y22255D01*
X50000Y22155D01*
X50000Y22055D01*
X50000Y21955D01*
X50000Y21856D01*
X50000Y21756D01*
X50000Y21656D01*
X50000Y21556D01*
X50000Y21456D01*
X50000Y21357D01*
X50000Y21257D01*
X50000Y21157D01*
X50000Y21057D01*
X50000Y20957D01*
X50000Y20858D01*
X50000Y20758D01*
X50000Y20658D01*
X50000Y20558D01*
X50000Y20459D01*
X50000Y20359D01*
X50000Y20259D01*
X50000Y20159D01*
X50000Y20059D01*
X50000Y19960D01*
X50000Y19860D01*
X50000Y19760D01*
X50000Y19660D01*
X50000Y19560D01*
X50000Y19461D01*
X50000Y19361D01*
X50000Y19261D01*
X50000Y19161D01*
X50000Y19061D01*
X50000Y18962D01*
X50000Y18862D01*
X50000Y18762D01*
X50000Y18662D01*
X50000Y18562D01*
X50000Y18463D01*
X50000Y18363D01*
X50000Y18263D01*
X50000Y18163D01*
X50000Y18063D01*
X50000Y17964D01*
X50000Y17864D01*
X50000Y17764D01*
X50000Y17664D01*
X50000Y17564D01*
X50000Y17465D01*
X50000Y17365D01*
X50000Y17265D01*
X50000Y17165D01*
X50000Y17065D01*
X50000Y16966D01*
X50000Y16866D01*
X50000Y16766D01*
X50000Y16666D01*
X50000Y16566D01*
X50000Y16467D01*
X50000Y16367D01*
X50000Y16267D01*
X50000Y16167D01*
X50000Y16067D01*
X50000Y15968D01*
X50000Y15868D01*
X50000Y15768D01*
X50000Y15668D01*
X50000Y15568D01*
X50000Y15469D01*
X50000Y15369D01*
X50000Y15269D01*
X50000Y15169D01*
X50000Y15069D01*
X50000Y14970D01*
X50000Y14870D01*
X50000Y14770D01*
X50000Y14670D01*
X50000Y14570D01*
X50000Y14471D01*
X50000Y14371D01*
X50000Y14271D01*
X50000Y14171D01*
X50000Y14071D01*
X50000Y13972D01*
X50000Y13872D01*
X50000Y13772D01*
X50000Y13672D01*
X50000Y13573D01*
X50000Y13473D01*
X50000Y13373D01*
X50000Y13273D01*
X50000Y13173D01*
X50000Y13074D01*
X50000Y12974D01*
X50000Y12874D01*
X50000Y12774D01*
X50000Y12674D01*
X50000Y12575D01*
X50000Y12475D01*
X50000Y12375D01*
X50000Y12275D01*
X50000Y12175D01*
X50000Y12076D01*
X50000Y11976D01*
X50000Y11876D01*
X50000Y11776D01*
X50000Y11676D01*
X50000Y11577D01*
X50000Y11477D01*
X50000Y11377D01*
X50000Y11277D01*
X50000Y11177D01*
X50000Y11078D01*
X50000Y10978D01*
X50000Y10878D01*
X50000Y10778D01*
X50000Y10678D01*
X50000Y10579D01*
X50000Y10479D01*
X50000Y10379D01*
X50000Y10279D01*
X50000Y10179D01*
X50000Y10080D01*
X50000Y9980D01*
X50000Y9880D01*
X50000Y9780D01*
X50000Y9680D01*
X50000Y9581D01*
X50000Y9481D01*
X50000Y9381D01*
X50000Y9281D01*
X50000Y9181D01*
X50000Y9082D01*
X50000Y8982D01*
X50000Y8882D01*
X50000Y8782D01*
X50000Y8682D01*
X50000Y8583D01*
X50000Y8483D01*
X50000Y8383D01*
X50000Y8283D01*
X50000Y8183D01*
X50000Y8084D01*
X50000Y7984D01*
X50000Y7884D01*
X50000Y7784D01*
X50000Y7684D01*
X50000Y7585D01*
X50000Y7485D01*
X50000Y7385D01*
X50000Y7285D01*
X50000Y7185D01*
X50000Y7086D01*
X50000Y6986D01*
X50000Y6886D01*
X50000Y6786D01*
X50000Y6686D01*
X50000Y6587D01*
X50000Y6487D01*
X50000Y6387D01*
X50000Y6287D01*
X50000Y6188D01*
X50000Y6088D01*
X50000Y5988D01*
X50000Y5888D01*
X50000Y5788D01*
X50000Y5689D01*
X50000Y5589D01*
X50000Y5489D01*
X50000Y5389D01*
X50000Y5289D01*
X50000Y5190D01*
X50000Y5090D01*
X50000Y4990D01*
X50000Y4890D01*
X50000Y4790D01*
X50000Y4691D01*
X50000Y4591D01*
X50000Y4491D01*
X50000Y4391D01*
X50000Y4291D01*
X50000Y4192D01*
X50000Y4092D01*
X50000Y3992D01*
X50000Y3892D01*
X50000Y3792D01*
X50000Y3693D01*
X50000Y3593D01*
X50000Y3493D01*
X50000Y3393D01*
X50000Y3293D01*
X50000Y3194D01*
X50000Y3094D01*
X50000Y2994D01*
X50000Y2894D01*
X50000Y2794D01*
X50000Y2695D01*
X50000Y2595D01*
X50000Y2495D01*
X50000Y2395D01*
X50000Y2295D01*
X50000Y2196D01*
X50000Y2096D01*
X50000Y1996D01*
X50000Y1896D01*
X50000Y1796D01*
X50000Y1697D01*
X50000Y1597D01*
X50000Y1497D01*
X50000Y1397D01*
X50000Y1297D01*
X50000Y1198D01*
X50000Y1098D01*
X50000Y998D01*
X50000Y898D01*
X50000Y798D01*
X50000Y699D01*
X50000Y599D01*
X50000Y499D01*
X50000Y399D01*
X50000Y299D01*
X50000Y200D01*
X50000Y100D01*
X50000Y0D01*
X49900Y0D01*
X49800Y0D01*
X49700Y0D01*
X49600Y0D01*
X49500Y0D01*
X49400Y0D01*
X49300Y0D01*
X49200Y0D01*
X49100Y0D01*
X49000Y0D01*
X48900Y0D01*
X48800Y0D01*
X48700Y0D01*
X48600Y0D01*
X48500Y0D01*
X48400Y0D01*
X48300Y0D01*
X48200Y0D01*
X48100Y0D01*
X48000Y0D01*
X47900Y0D01*
X47800Y0D01*
X47700Y0D01*
X47600Y0D01*
X47500Y0D01*
X47400Y0D01*
X47300Y0D01*
X47200Y0D01*
X47100Y0D01*
X47000Y0D01*
X46900Y0D01*
X46800Y0D01*
X46700Y0D01*
X46600Y0D01*
X46500Y0D01*
X46400Y0D01*
X46300Y0D01*
X46200Y0D01*
X46100Y0D01*
X46000Y0D01*
X45900Y0D01*
X45800Y0D01*
X45700Y0D01*
X45600Y0D01*
X45500Y0D01*
X45400Y0D01*
X45300Y0D01*
X45200Y0D01*
X45100Y0D01*
X45000Y0D01*
X44900Y0D01*
X44800Y0D01*
X44700Y0D01*
X44600Y0D01*
X44500Y0D01*
X44400Y0D01*
X44300Y0D01*
X44200Y0D01*
X44100Y0D01*
X44000Y0D01*
X43900Y0D01*
X43800Y0D01*
X43700Y0D01*
X43600Y0D01*
X43500Y0D01*
X43400Y0D01*
X43300Y0D01*
X43200Y0D01*
X43100Y0D01*
X43000Y0D01*
X42900Y0D01*
X42800Y0D01*
X42700Y0D01*
X42600Y0D01*
X42500Y0D01*
X42400Y0D01*
X42300Y0D01*
X42200Y0D01*
X42100Y0D01*
X42000Y0D01*
X41900Y0D01*
X41800Y0D01*
X41700Y0D01*
X41600Y0D01*
X41500Y0D01*
X41400Y0D01*
X41300Y0D01*
X41200Y0D01*
X41100Y0D01*
X41000Y0D01*
X40900Y0D01*
X40800Y0D01*
X40700Y0D01*
X40600Y0D01*
X40500Y0D01*
X40400Y0D01*
X40300Y0D01*
X40200Y0D01*
X40100Y0D01*
X40000Y0D01*
X39900Y0D01*
X39800Y0D01*
X39700Y0D01*
X39600Y0D01*
X39500Y0D01*
X39400Y0D01*
X39300Y0D01*
X39200Y0D01*
X39100Y0D01*
X39000Y0D01*
X38900Y0D01*
X38800Y0D01*
X38700Y0D01*
X38600Y0D01*
X38500Y0D01*
X38400Y0D01*
X38300Y0D01*
X38200Y0D01*
X38100Y0D01*
X38000Y0D01*
X37900Y0D01*
X37800Y0D01*
X37700Y0D01*
X37600Y0D01*
X37500Y0D01*
X37400Y0D01*
X37300Y0D01*
X37200Y0D01*
X37100Y0D01*
X37000Y0D01*
X36900Y0D01*
X36800Y0D01*
X36700Y0D01*
X36600Y0D01*
X36500Y0D01*
X36400Y0D01*
X36300Y0D01*
X36200Y0D01*
X36100Y0D01*
X36000Y0D01*
X35900Y0D01*
X35800Y0D01*
X35700Y0D01*
X35600Y0D01*
X35500Y0D01*
X35400Y0D01*
X35300Y0D01*
X35200Y0D01*
X35100Y0D01*
X35000Y0D01*
X34900Y0D01*
X34800Y0D01*
X34700Y0D01*
X34600Y0D01*
X34500Y0D01*
X34400Y0D01*
X34300Y0D01*
X34200Y0D01*
X34100Y0D01*
X34000Y0D01*
X33900Y0D01*
X33800Y0D01*
X33700Y0D01*
X33600Y0D01*
X33500Y0D01*
X33400Y0D01*
X33300Y0D01*
X33200Y0D01*
X33100Y0D01*
X33000Y0D01*
X32900Y0D01*
X32800Y0D01*
X32700Y0D01*
X32600Y0D01*
X32500Y0D01*
X32400Y0D01*
X32300Y0D01*
X32200Y0D01*
X32100Y0D01*
X32000Y0D01*
X31900Y0D01*
X31800Y0D01*
X31700Y0D01*
X31600Y0D01*
X31500Y0D01*
X31400Y0D01*
X31300Y0D01*
X31200Y0D01*
X31100Y0D01*
X31000Y0D01*
X30900Y0D01*
X30800Y0D01*
X30700Y0D01*
X30600Y0D01*
X30500Y0D01*
X30400Y0D01*
X30300Y0D01*
X30200Y0D01*
X30100Y0D01*
X30000Y0D01*
X29900Y0D01*
X29800Y0D01*
X29700Y0D01*
X29600Y0D01*
X29500Y0D01*
X29400Y0D01*
X29300Y0D01*
X29200Y0D01*
X29100Y0D01*
X29000Y0D01*
X28900Y0D01*
X28800Y0D01*
X28700Y0D01*
X28600Y0D01*
X28500Y0D01*
X28400Y0D01*
X28300Y0D01*
X28200Y0D01*
X28100Y0D01*
X28000Y0D01*
X27900Y0D01*
X27800Y0D01*
X27700Y0D01*
X27600Y0D01*
X27500Y0D01*
X27400Y0D01*
X27300Y0D01*
X27200Y0D01*
X27100Y0D01*
X27000Y0D01*
X26900Y0D01*
X26800Y0D01*
X26700Y0D01*
X26600Y0D01*
X26500Y0D01*
X26400Y0D01*
X26300Y0D01*
X26200Y0D01*
X26100Y0D01*
X26000Y0D01*
X25900Y0D01*
X25800Y0D01*
X25700Y0D01*
X25600Y0D01*
X25500Y0D01*
X25400Y0D01*
X25300Y0D01*
X25200Y0D01*
X25100Y0D01*
X25000Y0D01*
X24900Y0D01*
X24800Y0D01*
X24700Y0D01*
X24600Y0D01*
X24500Y0D01*
X24400Y0D01*
X24300Y0D01*
X24200Y0D01*
X24100Y0D01*
X24000Y0D01*
X23900Y0D01*
X23800Y0D01*
X23700Y0D01*
X23600Y0D01*
X23500Y0D01*
X23400Y0D01*
X23300Y0D01*
X23200Y0D01*
X23100Y0D01*
X23000Y0D01*
X22900Y0D01*
X22800Y0D01*
X22700Y0D01*
X22600Y0D01*
X22500Y0D01*
X22400Y0D01*
X22300Y0D01*
X22200Y0D01*
X22100Y0D01*
X22000Y0D01*
X21900Y0D01*
X21800Y0D01*
X21700Y0D01*
X21600Y0D01*
X21500Y0D01*
X21400Y0D01*
X21300Y0D01*
X21200Y0D01*
X21100Y0D01*
X21000Y0D01*
X20900Y0D01*
X20800Y0D01*
X20700Y0D01*
X20600Y0D01*
X20500Y0D01*
X20400Y0D01*
X20300Y0D01*
X20200Y0D01*
X20100Y0D01*
X20000Y0D01*
X19900Y0D01*
X19800Y0D01*
X19700Y0D01*
X19600Y0D01*
X19500Y0D01*
X19400Y0D01*
X19300Y0D01*
X19200Y0D01*
X19100Y0D01*
X19000Y0D01*
X18900Y0D01*
X18800Y0D01*
X18700Y0D01*
X18600Y0D01*
X18500Y0D01*
X18400Y0D01*
X18300Y0D01*
X18200Y0D01*
X18100Y0D01*
X18000Y0D01*
X17900Y0D01*
X17800Y0D01*
X17700Y0D01*
X17600Y0D01*
X17500Y0D01*
X17400Y0D01*
X17300Y0D01*
X17200Y0D01*
X17100Y0D01*
X17000Y0D01*
X16900Y0D01*
X16800Y0D01*
X16700Y0D01*
X16600Y0D01*
X16500Y0D01*
X16400Y0D01*
X16300Y0D01*
X16200Y0D01*
X16100Y0D01*
X16000Y0D01*
X15900Y0D01*
X15800Y0D01*
X15700Y0D01*
X15600Y0D01*
X15500Y0D01*
X15400Y0D01*
X15300Y0D01*
X15200Y0D01*
X15100Y0D01*
X15000Y0D01*
X14900Y0D01*
X14800Y0D01*
X14700Y0D01*
X14600Y0D01*
X14500Y0D01*
X14400Y0D01*
X14300Y0D01*
X14200Y0D01*
X14100Y0D01*
X14000Y0D01*
X13900Y0D01*
X13800Y0D01*
X13700Y0D01*
X13600Y0D01*
X13500Y0D01*
X13400Y0D01*
X13300Y0D01*
X13200Y0D01*
X13100Y0D01*
X13000Y0D01*
X12900Y0D01*
X12800Y0D01*
X12700Y0D01*
X12600Y0D01*
X12500Y0D01*
X12400Y0D01*
X12300Y0D01*
X12200Y0D01*
X12100Y0D01*
X12000Y0D01*
X11900Y0D01*
X11800Y0D01*
X11700Y0D01*
X11600Y0D01*
X11500Y0D01*
X11400Y0D01*
X11300Y0D01*
X11200Y0D01*
X11100Y0D01*
X11000Y0D01*
X10900Y0D01*
X10800Y0D01*
X10700Y0D01*
X10600Y0D01*
X10500Y0D01*
X10400Y0D01*
X10300Y0D01*
X10200Y0D01*
X10100Y0D01*
X10000Y0D01*
X9900Y0D01*
X9800Y0D01*
X9700Y0D01*
X9600Y0D01*
X9500Y0D01*
X9400Y0D01*
X9300Y0D01*
X9200Y0D01*
X9100Y0D01*
X9000Y0D01*
X8900Y0D01*
X8800Y0D01*
X8700Y0D01*
X8600Y0D01*
X8500Y0D01*
X8400Y0D01*
X8300Y0D01*
X8200Y0D01*
X8100Y0D01*
X8000Y0D01*
X7900Y0D01*
X7800Y0D01*
X7700Y0D01*
X7600Y0D01*
X7500Y0D01*
X7400Y0D01*
X7300Y0D01*
X7200Y0D01*
X7100Y0D01*
X7000Y0D01*
X6900Y0D01*
X6800Y0D01*
X6700Y0D01*
X6600Y0D01*
X6500Y0D01*
X6400Y0D01*
X6300Y0D01*
X6200Y0D01*
X6100Y0D01*
X6000Y0D01*
X5900Y0D01*
X5800Y0D01*
X5700Y0D01*
X5600Y0D01*
X5500Y0D01*
X5400Y0D01*
X5300Y0D01*
X5200Y0D01*
X5100Y0D01*
X5000Y0D01*
X4900Y0D01*
X4800Y0D01*
X4700Y0D01*
X4600Y0D01*
X4500Y0D01*
X4400Y0D01*
X4300Y0D01*
X4200Y0D01*
X4100Y0D01*
X4000Y0D01*
X3900Y0D01*
X3800Y0D01*
X3700Y0D01*
X3600Y0D01*
X3500Y0D01*
X3400Y0D01*
X3300Y0D01*
X3200Y0D01*
X3100Y0D01*
X3000Y0D01*
X2900Y0D01*
X2800Y0D01*
X2700Y0D01*
X2600Y0D01*
X2500Y0D01*
X2400Y0D01*
X2300Y0D01*
X2200Y0D01*
X2100Y0D01*
X2000Y0D01*
X1900Y0D01*
X1800Y0D01*
X1700Y0D01*
X1600Y0D01*
X1500Y0D01*
X1400Y0D01*
X1300Y0D01*
X1200Y0D01*
X1100Y0D01*
X1000Y0D01*
X900Y0D01*
X800Y0D01*
X700Y0D01*
X600Y0D01*
X500Y0D01*
X400Y0D01*
X300Y0D01*
X200Y0D01*
X100Y0D01*
X0Y0D01*
X0Y0D01*
D11*
X5920Y20153D02*
X6000Y20233D01*
D12*
X5920Y20153D02*
X6000Y20233D01*
D12*
X5920Y14933D02*
X5920Y20153D01*
D12*
X6000Y20233D02*
X6000Y20233D01*
D12*
X5920Y14933D02*
X5920Y14933D01*
D12*
X16080Y19426D02*
X10236Y25271D01*
D12*
X16080Y14933D02*
X16080Y19426D01*
D12*
X10236Y25271D02*
X10236Y25271D01*
D12*
X16080Y14933D02*
X16080Y14933D01*
D13*
X6042Y22731D02*
X6000Y22773D01*
D12*
X6042Y22731D02*
X6000Y22773D01*
D12*
X10236Y22731D02*
X6042Y22731D01*
D12*
X6000Y22773D02*
X6000Y22773D01*
D13*
X17934Y25349D02*
X17856Y25271D01*
D12*
X17934Y25349D02*
X17856Y25271D01*
D12*
X19920Y25349D02*
X17934Y25349D01*
D12*
X17856Y25271D02*
X17856Y25271D01*
D13*
X17898Y20233D02*
X17856Y20191D01*
D13*
X17856Y20191D02*
X17856Y20191D01*
D12*
X32540Y29273D02*
X32540Y29273D01*
D12*
X17856Y20191D02*
X17856Y20191D01*
D12*
X19000Y15013D02*
X18920Y14933D01*
D12*
X22948Y29512D02*
X22948Y20210D01*
D12*
X24916Y31479D02*
X22948Y29512D01*
D12*
X32540Y31479D02*
X24916Y31479D01*
D12*
X32570Y29303D02*
X32540Y29273D01*
D12*
X32540Y31481D02*
X32540Y29273D01*
D12*
X17875Y20210D02*
X17856Y20191D01*
D12*
X22948Y20210D02*
X17875Y20210D01*
D12*
X19000Y15013D02*
X19000Y20212D01*
D13*
X17877Y20212D02*
X17856Y20191D01*
D13*
X19000Y20212D02*
X17877Y20212D01*
D13*
X27391Y29204D02*
X27460Y29273D01*
D14*
X27460Y29273D02*
X27460Y8795D01*
D14*
X4512Y8795D02*
X27537Y8795D01*
D14*
X32460Y14933D02*
X32460Y14933D01*
D14*
X29080Y14933D02*
X32460Y14933D01*
D14*
X27537Y13390D02*
X29080Y14933D01*
D14*
X27537Y8795D02*
X27537Y13390D01*
D14*
X4650Y8933D02*
X4512Y8795D01*
D13*
X38000Y15189D02*
X38000Y15189D01*
D14*
X37744Y14933D02*
X38000Y15189D01*
D14*
X35000Y14933D02*
X37744Y14933D01*
D14*
X38000Y15189D02*
X38000Y15189D01*
D14*
X45436Y25341D02*
X45500Y25277D01*
D14*
X45500Y25277D02*
X45500Y25277D01*
D13*
X30080Y29193D02*
X30000Y29273D01*
D14*
X30080Y25349D02*
X30080Y29193D01*
D13*
X30080Y25349D02*
X30080Y25349D01*
D14*
X38000Y25349D02*
X30080Y25349D01*
D13*
X38072Y25277D02*
X38000Y25349D01*
D14*
X45500Y25277D02*
X38072Y25277D01*
D14*
X44918Y8388D02*
X45500Y8388D01*
D14*
X45500Y8388D02*
X45500Y8388D01*
D14*
X45500Y8388D02*
X45906Y8795D01*
D14*
X39212Y8795D02*
X45906Y8795D01*
D14*
X39350Y8933D02*
X39212Y8795D01*
D14*
X45500Y13396D02*
X45500Y13256D01*
D14*
X45500Y20269D02*
X45500Y20269D01*
D14*
X45500Y13396D02*
X45500Y20269D01*
G36*
X10036Y25771D02*
X10436Y25771D01*
X10533Y25761D01*
X10627Y25733D01*
X10714Y25686D01*
X10789Y25624D01*
X10852Y25548D01*
X10898Y25462D01*
X10926Y25368D01*
X10936Y25271D01*
X10936Y25271D01*
X10926Y25173D01*
X10898Y25079D01*
X10852Y24993D01*
X10789Y24917D01*
X10714Y24855D01*
X10627Y24809D01*
X10533Y24780D01*
X10436Y24771D01*
X10036Y24771D01*
X9938Y24780D01*
X9844Y24809D01*
X9758Y24855D01*
X9682Y24917D01*
X9620Y24993D01*
X9574Y25079D01*
X9545Y25173D01*
X9536Y25271D01*
X9536Y25271D01*
X9545Y25368D01*
X9574Y25462D01*
X9620Y25548D01*
X9682Y25624D01*
X9758Y25686D01*
X9844Y25733D01*
X9938Y25761D01*
X10036Y25771D01*
G37*
G36*
X10036Y23231D02*
X10436Y23231D01*
X10533Y23221D01*
X10627Y23193D01*
X10714Y23146D01*
X10789Y23084D01*
X10852Y23008D01*
X10898Y22922D01*
X10926Y22828D01*
X10936Y22731D01*
X10936Y22731D01*
X10926Y22633D01*
X10898Y22539D01*
X10852Y22453D01*
X10789Y22377D01*
X10714Y22315D01*
X10627Y22269D01*
X10533Y22240D01*
X10436Y22231D01*
X10036Y22231D01*
X9938Y22240D01*
X9844Y22269D01*
X9758Y22315D01*
X9682Y22377D01*
X9620Y22453D01*
X9574Y22539D01*
X9545Y22633D01*
X9536Y22731D01*
X9536Y22731D01*
X9545Y22828D01*
X9574Y22922D01*
X9620Y23008D01*
X9682Y23084D01*
X9758Y23146D01*
X9844Y23193D01*
X9938Y23221D01*
X10036Y23231D01*
G37*
G36*
X10036Y20691D02*
X10436Y20691D01*
X10533Y20681D01*
X10627Y20653D01*
X10714Y20606D01*
X10789Y20544D01*
X10852Y20468D01*
X10898Y20382D01*
X10926Y20288D01*
X10936Y20191D01*
X10936Y20191D01*
X10926Y20093D01*
X10898Y19999D01*
X10852Y19913D01*
X10789Y19837D01*
X10714Y19775D01*
X10627Y19729D01*
X10533Y19700D01*
X10436Y19691D01*
X10036Y19691D01*
X9938Y19700D01*
X9844Y19729D01*
X9758Y19775D01*
X9682Y19837D01*
X9620Y19913D01*
X9574Y19999D01*
X9545Y20093D01*
X9536Y20191D01*
X9536Y20191D01*
X9545Y20288D01*
X9574Y20382D01*
X9620Y20468D01*
X9682Y20544D01*
X9758Y20606D01*
X9844Y20653D01*
X9938Y20681D01*
X10036Y20691D01*
G37*
G36*
X17656Y20691D02*
X18056Y20691D01*
X18153Y20681D01*
X18247Y20653D01*
X18334Y20606D01*
X18409Y20544D01*
X18472Y20468D01*
X18518Y20382D01*
X18546Y20288D01*
X18556Y20191D01*
X18556Y20191D01*
X18546Y20093D01*
X18518Y19999D01*
X18472Y19913D01*
X18409Y19837D01*
X18334Y19775D01*
X18247Y19729D01*
X18153Y19700D01*
X18056Y19691D01*
X17656Y19691D01*
X17558Y19700D01*
X17464Y19729D01*
X17378Y19775D01*
X17302Y19837D01*
X17240Y19913D01*
X17194Y19999D01*
X17165Y20093D01*
X17156Y20191D01*
X17156Y20191D01*
X17165Y20288D01*
X17194Y20382D01*
X17240Y20468D01*
X17302Y20544D01*
X17378Y20606D01*
X17464Y20653D01*
X17558Y20681D01*
X17656Y20691D01*
G37*
G36*
X17656Y25771D02*
X18056Y25771D01*
X18153Y25761D01*
X18247Y25733D01*
X18334Y25686D01*
X18409Y25624D01*
X18472Y25548D01*
X18518Y25462D01*
X18546Y25368D01*
X18556Y25271D01*
X18556Y25271D01*
X18546Y25173D01*
X18518Y25079D01*
X18472Y24993D01*
X18409Y24917D01*
X18334Y24855D01*
X18247Y24809D01*
X18153Y24780D01*
X18056Y24771D01*
X17656Y24771D01*
X17558Y24780D01*
X17464Y24809D01*
X17378Y24855D01*
X17302Y24917D01*
X17240Y24993D01*
X17194Y25079D01*
X17165Y25173D01*
X17156Y25271D01*
X17156Y25271D01*
X17165Y25368D01*
X17194Y25462D01*
X17240Y25548D01*
X17302Y25624D01*
X17378Y25686D01*
X17464Y25733D01*
X17558Y25761D01*
X17656Y25771D01*
G37*
G36*
X17656Y23231D02*
X18056Y23231D01*
X18153Y23221D01*
X18247Y23193D01*
X18334Y23146D01*
X18409Y23084D01*
X18472Y23008D01*
X18518Y22922D01*
X18546Y22828D01*
X18556Y22731D01*
X18556Y22731D01*
X18546Y22633D01*
X18518Y22539D01*
X18472Y22453D01*
X18409Y22377D01*
X18334Y22315D01*
X18247Y22269D01*
X18153Y22240D01*
X18056Y22231D01*
X17656Y22231D01*
X17558Y22240D01*
X17464Y22269D01*
X17378Y22315D01*
X17302Y22377D01*
X17240Y22453D01*
X17194Y22539D01*
X17165Y22633D01*
X17156Y22731D01*
X17156Y22731D01*
X17165Y22828D01*
X17194Y22922D01*
X17240Y23008D01*
X17302Y23084D01*
X17378Y23146D01*
X17464Y23193D01*
X17558Y23221D01*
X17656Y23231D01*
G37*
G36*
X6000Y23373D02*
X6000Y23373D01*
X6094Y23366D01*
X6185Y23344D01*
X6272Y23308D01*
X6353Y23259D01*
X6424Y23197D01*
X6485Y23126D01*
X6535Y23046D01*
X6571Y22959D01*
X6593Y22867D01*
X6600Y22773D01*
X6600Y22773D01*
X6593Y22679D01*
X6571Y22588D01*
X6535Y22501D01*
X6485Y22420D01*
X6424Y22349D01*
X6353Y22288D01*
X6272Y22238D01*
X6185Y22202D01*
X6094Y22180D01*
X6000Y22173D01*
X6000Y22173D01*
X5906Y22180D01*
X5815Y22202D01*
X5728Y22238D01*
X5647Y22288D01*
X5576Y22349D01*
X5515Y22420D01*
X5465Y22501D01*
X5429Y22588D01*
X5407Y22679D01*
X5400Y22773D01*
X5400Y22773D01*
X5407Y22867D01*
X5429Y22959D01*
X5465Y23046D01*
X5515Y23126D01*
X5576Y23197D01*
X5647Y23259D01*
X5728Y23308D01*
X5815Y23344D01*
X5906Y23366D01*
X6000Y23373D01*
G37*
G36*
X6000Y20833D02*
X6000Y20833D01*
X6094Y20826D01*
X6185Y20804D01*
X6272Y20768D01*
X6353Y20719D01*
X6424Y20657D01*
X6485Y20586D01*
X6535Y20506D01*
X6571Y20419D01*
X6593Y20327D01*
X6600Y20233D01*
X6600Y20233D01*
X6593Y20139D01*
X6571Y20048D01*
X6535Y19961D01*
X6485Y19880D01*
X6424Y19809D01*
X6353Y19748D01*
X6272Y19698D01*
X6185Y19662D01*
X6094Y19640D01*
X6000Y19633D01*
X6000Y19633D01*
X5906Y19640D01*
X5815Y19662D01*
X5728Y19698D01*
X5647Y19748D01*
X5576Y19809D01*
X5515Y19880D01*
X5465Y19961D01*
X5429Y20048D01*
X5407Y20139D01*
X5400Y20233D01*
X5400Y20233D01*
X5407Y20327D01*
X5429Y20419D01*
X5465Y20506D01*
X5515Y20586D01*
X5576Y20657D01*
X5647Y20719D01*
X5728Y20768D01*
X5815Y20804D01*
X5906Y20826D01*
X6000Y20833D01*
G37*
G36*
X5900Y6433D02*
X5900Y11433D01*
X3400Y11433D01*
X3400Y6433D01*
X5900Y6433D01*
G37*
G36*
X33000Y6433D02*
X33000Y11433D01*
X30500Y11433D01*
X30500Y6433D01*
X33000Y6433D01*
G37*
G36*
X13500Y6433D02*
X13500Y11433D01*
X11000Y11433D01*
X11000Y6433D01*
X13500Y6433D01*
G37*
G36*
X40600Y6433D02*
X40600Y11433D01*
X38100Y11433D01*
X38100Y6433D01*
X40600Y6433D01*
G37*
G36*
X5213Y15219D02*
X5622Y15635D01*
X6206Y15640D01*
X6622Y15231D01*
X6627Y14648D01*
X6218Y14231D01*
X5634Y14226D01*
X5218Y14635D01*
G37*
G36*
X15373Y15219D02*
X15782Y15635D01*
X16366Y15640D01*
X16782Y15231D01*
X16787Y14648D01*
X16378Y14231D01*
X15794Y14226D01*
X15378Y14635D01*
G37*
G36*
X19213Y25635D02*
X19622Y26051D01*
X20206Y26056D01*
X20622Y25647D01*
X20627Y25064D01*
X20218Y24647D01*
X19634Y24642D01*
X19218Y25051D01*
G37*
G36*
X29373Y25635D02*
X29782Y26051D01*
X30366Y26056D01*
X30782Y25647D01*
X30787Y25064D01*
X30378Y24647D01*
X29794Y24642D01*
X29378Y25051D01*
G37*
G36*
X18213Y15219D02*
X18622Y15635D01*
X19206Y15640D01*
X19622Y15231D01*
X19627Y14648D01*
X19218Y14231D01*
X18634Y14226D01*
X18218Y14635D01*
G37*
G36*
X28373Y15219D02*
X28782Y15635D01*
X29366Y15640D01*
X29782Y15231D01*
X29787Y14648D01*
X29378Y14231D01*
X28794Y14226D01*
X28378Y14635D01*
G37*
G36*
X37714Y14482D02*
X37298Y14891D01*
X37293Y15475D01*
X37702Y15891D01*
X38286Y15896D01*
X38702Y15487D01*
X38707Y14904D01*
X38298Y14487D01*
G37*
G36*
X37714Y24642D02*
X37298Y25051D01*
X37293Y25635D01*
X37702Y26051D01*
X38286Y26056D01*
X38702Y25647D01*
X38707Y25064D01*
X38298Y24647D01*
G37*
G36*
X31894Y15162D02*
X32222Y15495D01*
X32689Y15499D01*
X33022Y15171D01*
X33026Y14705D01*
X32698Y14371D01*
X32231Y14367D01*
X31898Y14695D01*
G37*
G36*
X34434Y15162D02*
X34762Y15495D01*
X35229Y15499D01*
X35562Y15171D01*
X35566Y14705D01*
X35238Y14371D01*
X34771Y14367D01*
X34438Y14695D01*
G37*
G36*
X47400Y8388D02*
X47400Y8388D01*
X47397Y8289D01*
X47390Y8190D01*
X47377Y8091D01*
X47359Y7993D01*
X47336Y7897D01*
X47307Y7801D01*
X47274Y7707D01*
X47236Y7615D01*
X47193Y7526D01*
X47146Y7438D01*
X47094Y7354D01*
X47037Y7272D01*
X46977Y7193D01*
X46912Y7117D01*
X46844Y7045D01*
X46771Y6976D01*
X46696Y6912D01*
X46617Y6851D01*
X46535Y6795D01*
X46450Y6743D01*
X46363Y6695D01*
X46273Y6652D01*
X46181Y6614D01*
X46087Y6581D01*
X45992Y6553D01*
X45895Y6530D01*
X45797Y6512D01*
X45699Y6499D01*
X45599Y6491D01*
X45500Y6488D01*
X45500Y6488D01*
X45401Y6491D01*
X45301Y6499D01*
X45203Y6512D01*
X45105Y6530D01*
X45008Y6553D01*
X44913Y6581D01*
X44819Y6614D01*
X44727Y6652D01*
X44637Y6695D01*
X44550Y6743D01*
X44465Y6795D01*
X44383Y6851D01*
X44304Y6912D01*
X44229Y6976D01*
X44156Y7045D01*
X44088Y7117D01*
X44023Y7193D01*
X43963Y7272D01*
X43906Y7354D01*
X43854Y7438D01*
X43807Y7526D01*
X43764Y7615D01*
X43726Y7707D01*
X43693Y7801D01*
X43664Y7897D01*
X43641Y7993D01*
X43623Y8091D01*
X43610Y8190D01*
X43603Y8289D01*
X43600Y8388D01*
X43600Y8388D01*
X43603Y8488D01*
X43610Y8587D01*
X43623Y8686D01*
X43641Y8784D01*
X43664Y8880D01*
X43693Y8976D01*
X43726Y9070D01*
X43764Y9161D01*
X43807Y9251D01*
X43854Y9339D01*
X43906Y9423D01*
X43963Y9505D01*
X44023Y9584D01*
X44088Y9660D01*
X44156Y9732D01*
X44229Y9800D01*
X44304Y9865D01*
X44383Y9926D01*
X44465Y9982D01*
X44550Y10034D01*
X44637Y10082D01*
X44727Y10125D01*
X44819Y10163D01*
X44913Y10196D01*
X45008Y10224D01*
X45105Y10247D01*
X45203Y10265D01*
X45301Y10278D01*
X45401Y10286D01*
X45500Y10288D01*
X45500Y10288D01*
X45599Y10286D01*
X45699Y10278D01*
X45797Y10265D01*
X45895Y10247D01*
X45992Y10224D01*
X46087Y10196D01*
X46181Y10163D01*
X46273Y10125D01*
X46363Y10082D01*
X46450Y10034D01*
X46535Y9982D01*
X46617Y9926D01*
X46696Y9865D01*
X46771Y9800D01*
X46844Y9732D01*
X46912Y9660D01*
X46977Y9584D01*
X47037Y9505D01*
X47094Y9423D01*
X47146Y9339D01*
X47193Y9251D01*
X47236Y9161D01*
X47274Y9070D01*
X47307Y8976D01*
X47336Y8880D01*
X47359Y8784D01*
X47377Y8686D01*
X47390Y8587D01*
X47397Y8488D01*
X47400Y8388D01*
G37*
G36*
X47400Y13396D02*
X47400Y13396D01*
X47397Y13297D01*
X47390Y13198D01*
X47377Y13099D01*
X47359Y13001D01*
X47336Y12905D01*
X47307Y12809D01*
X47274Y12715D01*
X47236Y12623D01*
X47193Y12534D01*
X47146Y12446D01*
X47094Y12362D01*
X47037Y12280D01*
X46977Y12201D01*
X46912Y12125D01*
X46844Y12053D01*
X46771Y11984D01*
X46696Y11920D01*
X46617Y11859D01*
X46535Y11803D01*
X46450Y11751D01*
X46363Y11703D01*
X46273Y11660D01*
X46181Y11622D01*
X46087Y11589D01*
X45992Y11561D01*
X45895Y11538D01*
X45797Y11520D01*
X45699Y11507D01*
X45599Y11499D01*
X45500Y11496D01*
X45500Y11496D01*
X45401Y11499D01*
X45301Y11507D01*
X45203Y11520D01*
X45105Y11538D01*
X45008Y11561D01*
X44913Y11589D01*
X44819Y11622D01*
X44727Y11660D01*
X44637Y11703D01*
X44550Y11751D01*
X44465Y11803D01*
X44383Y11859D01*
X44304Y11920D01*
X44229Y11984D01*
X44156Y12053D01*
X44088Y12125D01*
X44023Y12201D01*
X43963Y12280D01*
X43906Y12362D01*
X43854Y12446D01*
X43807Y12534D01*
X43764Y12623D01*
X43726Y12715D01*
X43693Y12809D01*
X43664Y12905D01*
X43641Y13001D01*
X43623Y13099D01*
X43610Y13198D01*
X43603Y13297D01*
X43600Y13396D01*
X43600Y13396D01*
X43603Y13496D01*
X43610Y13595D01*
X43623Y13694D01*
X43641Y13792D01*
X43664Y13888D01*
X43693Y13984D01*
X43726Y14078D01*
X43764Y14169D01*
X43807Y14259D01*
X43854Y14347D01*
X43906Y14431D01*
X43963Y14513D01*
X44023Y14592D01*
X44088Y14668D01*
X44156Y14740D01*
X44229Y14808D01*
X44304Y14873D01*
X44383Y14934D01*
X44465Y14990D01*
X44550Y15042D01*
X44637Y15090D01*
X44727Y15133D01*
X44819Y15171D01*
X44913Y15204D01*
X45008Y15232D01*
X45105Y15255D01*
X45203Y15273D01*
X45301Y15286D01*
X45401Y15294D01*
X45500Y15296D01*
X45500Y15296D01*
X45599Y15294D01*
X45699Y15286D01*
X45797Y15273D01*
X45895Y15255D01*
X45992Y15232D01*
X46087Y15204D01*
X46181Y15171D01*
X46273Y15133D01*
X46363Y15090D01*
X46450Y15042D01*
X46535Y14990D01*
X46617Y14934D01*
X46696Y14873D01*
X46771Y14808D01*
X46844Y14740D01*
X46912Y14668D01*
X46977Y14592D01*
X47037Y14513D01*
X47094Y14431D01*
X47146Y14347D01*
X47193Y14259D01*
X47236Y14169D01*
X47274Y14078D01*
X47307Y13984D01*
X47336Y13888D01*
X47359Y13792D01*
X47377Y13694D01*
X47390Y13595D01*
X47397Y13496D01*
X47400Y13396D01*
G37*
G36*
X47400Y20269D02*
X47400Y20269D01*
X47397Y20170D01*
X47390Y20070D01*
X47377Y19972D01*
X47359Y19874D01*
X47336Y19777D01*
X47307Y19682D01*
X47274Y19588D01*
X47236Y19496D01*
X47193Y19406D01*
X47146Y19319D01*
X47094Y19234D01*
X47037Y19152D01*
X46977Y19073D01*
X46912Y18998D01*
X46844Y18926D01*
X46771Y18857D01*
X46696Y18792D01*
X46617Y18732D01*
X46535Y18675D01*
X46450Y18623D01*
X46363Y18576D01*
X46273Y18533D01*
X46181Y18495D01*
X46087Y18462D01*
X45992Y18433D01*
X45895Y18410D01*
X45797Y18392D01*
X45699Y18379D01*
X45599Y18372D01*
X45500Y18369D01*
X45500Y18369D01*
X45401Y18372D01*
X45301Y18379D01*
X45203Y18392D01*
X45105Y18410D01*
X45008Y18433D01*
X44913Y18462D01*
X44819Y18495D01*
X44727Y18533D01*
X44637Y18576D01*
X44550Y18623D01*
X44465Y18675D01*
X44383Y18732D01*
X44304Y18792D01*
X44229Y18857D01*
X44156Y18926D01*
X44088Y18998D01*
X44023Y19073D01*
X43963Y19152D01*
X43906Y19234D01*
X43854Y19319D01*
X43807Y19406D01*
X43764Y19496D01*
X43726Y19588D01*
X43693Y19682D01*
X43664Y19777D01*
X43641Y19874D01*
X43623Y19972D01*
X43610Y20070D01*
X43603Y20170D01*
X43600Y20269D01*
X43600Y20269D01*
X43603Y20369D01*
X43610Y20468D01*
X43623Y20566D01*
X43641Y20664D01*
X43664Y20761D01*
X43693Y20856D01*
X43726Y20950D01*
X43764Y21042D01*
X43807Y21132D01*
X43854Y21219D01*
X43906Y21304D01*
X43963Y21386D01*
X44023Y21465D01*
X44088Y21540D01*
X44156Y21613D01*
X44229Y21681D01*
X44304Y21746D01*
X44383Y21806D01*
X44465Y21863D01*
X44550Y21915D01*
X44637Y21962D01*
X44727Y22005D01*
X44819Y22043D01*
X44913Y22077D01*
X45008Y22105D01*
X45105Y22128D01*
X45203Y22146D01*
X45301Y22159D01*
X45401Y22167D01*
X45500Y22169D01*
X45500Y22169D01*
X45599Y22167D01*
X45699Y22159D01*
X45797Y22146D01*
X45895Y22128D01*
X45992Y22105D01*
X46087Y22077D01*
X46181Y22043D01*
X46273Y22005D01*
X46363Y21962D01*
X46450Y21915D01*
X46535Y21863D01*
X46617Y21806D01*
X46696Y21746D01*
X46771Y21681D01*
X46844Y21613D01*
X46912Y21540D01*
X46977Y21465D01*
X47037Y21386D01*
X47094Y21304D01*
X47146Y21219D01*
X47193Y21132D01*
X47236Y21042D01*
X47274Y20950D01*
X47307Y20856D01*
X47336Y20761D01*
X47359Y20664D01*
X47377Y20566D01*
X47390Y20468D01*
X47397Y20369D01*
X47400Y20269D01*
G37*
G36*
X47400Y25277D02*
X47400Y25277D01*
X47397Y25178D01*
X47390Y25078D01*
X47377Y24980D01*
X47359Y24882D01*
X47336Y24785D01*
X47307Y24690D01*
X47274Y24596D01*
X47236Y24504D01*
X47193Y24414D01*
X47146Y24327D01*
X47094Y24242D01*
X47037Y24160D01*
X46977Y24081D01*
X46912Y24006D01*
X46844Y23934D01*
X46771Y23865D01*
X46696Y23800D01*
X46617Y23740D01*
X46535Y23683D01*
X46450Y23631D01*
X46363Y23584D01*
X46273Y23541D01*
X46181Y23503D01*
X46087Y23470D01*
X45992Y23441D01*
X45895Y23418D01*
X45797Y23400D01*
X45699Y23387D01*
X45599Y23380D01*
X45500Y23377D01*
X45500Y23377D01*
X45401Y23380D01*
X45301Y23387D01*
X45203Y23400D01*
X45105Y23418D01*
X45008Y23441D01*
X44913Y23470D01*
X44819Y23503D01*
X44727Y23541D01*
X44637Y23584D01*
X44550Y23631D01*
X44465Y23683D01*
X44383Y23740D01*
X44304Y23800D01*
X44229Y23865D01*
X44156Y23934D01*
X44088Y24006D01*
X44023Y24081D01*
X43963Y24160D01*
X43906Y24242D01*
X43854Y24327D01*
X43807Y24414D01*
X43764Y24504D01*
X43726Y24596D01*
X43693Y24690D01*
X43664Y24785D01*
X43641Y24882D01*
X43623Y24980D01*
X43610Y25078D01*
X43603Y25178D01*
X43600Y25277D01*
X43600Y25277D01*
X43603Y25377D01*
X43610Y25476D01*
X43623Y25574D01*
X43641Y25672D01*
X43664Y25769D01*
X43693Y25864D01*
X43726Y25958D01*
X43764Y26050D01*
X43807Y26140D01*
X43854Y26227D01*
X43906Y26312D01*
X43963Y26394D01*
X44023Y26473D01*
X44088Y26548D01*
X44156Y26621D01*
X44229Y26689D01*
X44304Y26754D01*
X44383Y26814D01*
X44465Y26871D01*
X44550Y26923D01*
X44637Y26970D01*
X44727Y27013D01*
X44819Y27051D01*
X44913Y27085D01*
X45008Y27113D01*
X45105Y27136D01*
X45203Y27154D01*
X45301Y27167D01*
X45401Y27175D01*
X45500Y27177D01*
X45500Y27177D01*
X45599Y27175D01*
X45699Y27167D01*
X45797Y27154D01*
X45895Y27136D01*
X45992Y27113D01*
X46087Y27085D01*
X46181Y27051D01*
X46273Y27013D01*
X46363Y26970D01*
X46450Y26923D01*
X46535Y26871D01*
X46617Y26814D01*
X46696Y26754D01*
X46771Y26689D01*
X46844Y26621D01*
X46912Y26548D01*
X46977Y26473D01*
X47037Y26394D01*
X47094Y26312D01*
X47146Y26227D01*
X47193Y26140D01*
X47236Y26050D01*
X47274Y25958D01*
X47307Y25864D01*
X47336Y25769D01*
X47359Y25672D01*
X47377Y25574D01*
X47390Y25476D01*
X47397Y25377D01*
X47400Y25277D01*
G37*
G36*
X28222Y28511D02*
X28222Y30035D01*
X26698Y30035D01*
X26698Y28511D01*
X28222Y28511D01*
G37*
G36*
X30762Y28511D02*
X30762Y30035D01*
X29238Y30035D01*
X29238Y28511D01*
X30762Y28511D01*
G37*
G36*
X33302Y28511D02*
X33302Y30035D01*
X31778Y30035D01*
X31778Y28511D01*
X33302Y28511D01*
G37*
M02*
